<?xml version="1.0" encoding="UTF-8" standalone="no"?>
<!DOCTYPE svg PUBLIC "-//W3C//DTD SVG 1.1//EN"
 "http://www.w3.org/Graphics/SVG/1.1/DTD/svg11.dtd">
<!-- Generated by graphviz version 2.38.0 (20140413.2041)
 -->
<!-- Title: network Pages: 1 -->
<svg width="491pt" height="375pt"
 viewBox="0.00 0.00 490.75 375.32" xmlns="http://www.w3.org/2000/svg" xmlns:xlink="http://www.w3.org/1999/xlink">
<g id="graph0" class="graph" transform="scale(1 1) rotate(0) translate(4.26858 371.56)">
<title>network</title>
<polygon fill="white" stroke="none" points="-4.26858,3.76062 -4.26858,-371.56 486.48,-371.56 486.48,3.76062 -4.26858,3.76062"/>
<g id="clust1" class="cluster"><title>cluster_group1</title>
<polygon fill="none" stroke="black" points="-0.26858,-0.23938 -0.26858,-279.24 359.73,-279.24 359.73,-0.23938 -0.26858,-0.23938"/>
</g>
<!-- node1&#45;&#45;node4 -->
<g id="edge1" class="edge"><title>node1&#45;&#45;node4</title>
<path fill="none" stroke="black" d="M180.01,-136.8C147.83,-152.2 112.22,-169.24 85.474,-182.04"/>
<polygon fill="black" stroke="black" points="83.9138,-178.906 76.404,-186.38 86.9352,-185.221 83.9138,-178.906"/>
</g>
<!-- node1&#45;&#45;node2 -->
<g id="edge2" class="edge"><title>node1&#45;&#45;node2</title>
<path fill="none" stroke="black" stroke-width="1.70111" d="M304.46,-177.02C325.95,-216.47 350.72,-261.95 366.86,-291.58"/>
</g>
<!-- node1&#45;&#45;node3 -->
<g id="edge3" class="edge"><title>node1&#45;&#45;node3</title>
<path fill="none" stroke="black" stroke-width="3.74908" d="M348.77,-75.386C366.89,-70.723 385.28,-65.993 401.14,-61.912"/>
<polygon fill="black" stroke="black" stroke-width="3.74908" points="402.357,-65.2129 411.17,-59.332 400.613,-58.4336 402.357,-65.2129"/>
</g>
<!-- node1&#45;&#45;node5 -->
<g id="edge4" class="edge"><title>node1&#45;&#45;node5</title>
<path fill="none" stroke="black" stroke-width="6" d="M200.65,-164.84C158.46,-211.37 104.5,-270.89 73.787,-304.77"/>
</g>
<!-- node4&#45;&#45;node5 -->
<g id="edge5" class="edge"><title>node4&#45;&#45;node5</title>
<path fill="none" stroke="black" stroke-width="5.48339" d="M45.343,-238.1C46.136,-255.92 47.089,-277.37 47.883,-295.22"/>
</g>
<!-- node2&#45;&#45;node3 -->
<g id="edge6" class="edge"><title>node2&#45;&#45;node3</title>
<path fill="none" stroke="black" stroke-width="4.91144" d="M392.14,-288.13C403.36,-239.01 423.74,-149.79 436.11,-95.683"/>
<polygon fill="black" stroke="black" stroke-width="4.91144" points="440.358,-96.3829 438.39,-85.678 431.978,-94.4731 440.358,-96.3829"/>
</g>
<!-- node1 -->
<g id="node1" class="node"><title>node1</title>
<ellipse fill="#9a9aff" stroke="red" stroke-width="5" cx="261.36" cy="-97.873" rx="90" ry="90"/>
<text text-anchor="middle" x="261.36" y="-94.173" font-family="Times,serif" font-size="14.00">node1</text>
</g>
<!-- node4 -->
<g id="node2" class="node"><title>node4</title>
<ellipse fill="#5858ff" stroke="red" stroke-width="5" cx="43.738" cy="-202.01" rx="36" ry="36"/>
<text text-anchor="middle" x="43.738" y="-198.31" font-family="Times,serif" font-size="14.00">node4</text>
</g>
<!-- node2 -->
<g id="node3" class="node"><title>node2</title>
<ellipse fill="#0000ff" stroke="black" cx="384.12" cy="-323.26" rx="36" ry="36"/>
<text text-anchor="middle" x="384.12" y="-319.56" font-family="Times,serif" font-size="14.00">node2</text>
</g>
<!-- node3 -->
<g id="node4" class="node"><title>node3</title>
<ellipse fill="#ff0000" stroke="black" cx="446.48" cy="-50.248" rx="36" ry="36"/>
<text text-anchor="middle" x="446.48" y="-46.548" font-family="Times,serif" font-size="14.00">node3</text>
</g>
<!-- node5 -->
<g id="node5" class="node"><title>node5</title>
<ellipse fill="#ffdada" stroke="black" cx="49.499" cy="-331.56" rx="36" ry="36"/>
<text text-anchor="middle" x="49.499" y="-327.86" font-family="Times,serif" font-size="14.00">node5</text>
</g>
</g>
</svg>
