<?xml version="1.0" encoding="UTF-8" standalone="no"?>
<!DOCTYPE svg PUBLIC "-//W3C//DTD SVG 1.1//EN"
 "http://www.w3.org/Graphics/SVG/1.1/DTD/svg11.dtd">
<!-- Generated by graphviz version 2.38.0 (20140413.2041)
 -->
<!-- Title: network Pages: 1 -->
<svg width="310pt" height="421pt"
 viewBox="0.00 0.00 309.90 420.56" xmlns="http://www.w3.org/2000/svg" xmlns:xlink="http://www.w3.org/1999/xlink">
<g id="graph0" class="graph" transform="scale(1 1) rotate(0) translate(154.86 209.91)">
<title>network</title>
<polygon fill="white" stroke="none" points="-154.86,210.65 -154.86,-209.91 155.04,-209.91 155.04,210.65 -154.86,210.65"/>
<!-- node1&#45;&#45;node2 -->
<g id="edge1" class="edge"><title>node1&#45;&#45;node2</title>
<path fill="none" stroke="black" stroke-width="1.70111" d="M58.174,68.341C69.905,81.92 81.579,95.434 91.27,106.65"/>
</g>
<!-- node1&#45;&#45;node3 -->
<g id="edge2" class="edge"><title>node1&#45;&#45;node3</title>
<path fill="none" stroke="black" stroke-width="3.74908" d="M-24.838,86.901C-28.589,100.4 -32.327,113.84 -35.674,125.88"/>
<polygon fill="black" stroke="black" stroke-width="3.74908" points="-32.3363,126.942 -38.385,135.64 -39.0809,125.068 -32.3363,126.942"/>
</g>
<!-- node1&#45;&#45;node4 -->
<g id="edge3" class="edge"><title>node1&#45;&#45;node4</title>
<path fill="none" stroke="black" d="M-58.795,-68.644C-67.829,-79.348 -76.83,-90.013 -84.891,-99.564"/>
<polygon fill="black" stroke="black" points="-87.6452,-97.4008 -91.421,-107.3 -82.2961,-101.916 -87.6452,-97.4008"/>
</g>
<!-- node1&#45;&#45;node5 -->
<g id="edge4" class="edge"><title>node1&#45;&#45;node5</title>
<path fill="none" stroke="black" stroke-width="6" d="M24.398,-86.37C29.402,-103.6 34.383,-120.75 38.517,-134.99"/>
</g>
<!-- node2&#45;&#45;node3 -->
<g id="edge5" class="edge"><title>node2&#45;&#45;node3</title>
<path fill="none" stroke="black" stroke-width="4.91144" d="M79.639,142.09C55.479,147.49 23.263,154.69 -2.7733,160.51"/>
<polygon fill="black" stroke="black" stroke-width="4.91144" points="-2.08479,164.76 -12.782,162.75 -3.96203,156.372 -2.08479,164.76"/>
</g>
<!-- node4&#45;&#45;node5 -->
<g id="edge6" class="edge"><title>node4&#45;&#45;node5</title>
<path fill="none" stroke="black" stroke-width="5.48339" d="M-79.376,-142.63C-51.949,-148.47 -14.163,-156.52 13.247,-162.36"/>
</g>
<!-- node1 -->
<g id="node1" class="node"><title>node1</title>
<ellipse fill="#9a9aff" stroke="black" cx="-0.72828" cy="0.15679" rx="90" ry="90"/>
<text text-anchor="middle" x="-0.72828" y="3.85679" font-family="Times,serif" font-size="14.00">node1</text>
</g>
<!-- node2 -->
<g id="node2" class="node"><title>node2</title>
<ellipse fill="#0000ff" stroke="black" cx="115.04" cy="134.17" rx="36" ry="36"/>
<text text-anchor="middle" x="115.04" y="137.87" font-family="Times,serif" font-size="14.00">node2</text>
</g>
<!-- node3 -->
<g id="node3" class="node"><title>node3</title>
<ellipse fill="#ff0000" stroke="black" cx="-48.115" cy="170.65" rx="36" ry="36"/>
<text text-anchor="middle" x="-48.115" y="174.35" font-family="Times,serif" font-size="14.00">node3</text>
</g>
<!-- node4 -->
<g id="node4" class="node"><title>node4</title>
<ellipse fill="#5858ff" stroke="black" cx="-114.86" cy="-135.07" rx="36" ry="36"/>
<text text-anchor="middle" x="-114.86" y="-131.37" font-family="Times,serif" font-size="14.00">node4</text>
</g>
<!-- node5 -->
<g id="node5" class="node"><title>node5</title>
<ellipse fill="#ffdada" stroke="black" cx="48.657" cy="-169.91" rx="36" ry="36"/>
<text text-anchor="middle" x="48.657" y="-166.21" font-family="Times,serif" font-size="14.00">node5</text>
</g>
</g>
</svg>
