<?xml version="1.0" encoding="UTF-8" standalone="no"?>
<!DOCTYPE svg PUBLIC "-//W3C//DTD SVG 1.1//EN"
 "http://www.w3.org/Graphics/SVG/1.1/DTD/svg11.dtd">
<!-- Generated by graphviz version 2.38.0 (20140413.2041)
 -->
<!-- Title: network Pages: 1 -->
<svg width="474pt" height="297pt"
 viewBox="0.00 0.00 474.00 297.00" xmlns="http://www.w3.org/2000/svg" xmlns:xlink="http://www.w3.org/1999/xlink">
<g id="graph0" class="graph" transform="scale(1 1) rotate(0) translate(4 293)">
<title>network</title>
<polygon fill="white" stroke="none" points="-4,4 -4,-293 470,-293 470,4 -4,4"/>
<g id="clust1" class="cluster"><title>cluster_optional</title>
<polygon fill="none" stroke="grey" points="356,-46 356,-289 461,-289 461,-46 356,-46"/>
<text text-anchor="middle" x="408.5" y="-53.8" font-family="sans-serif" font-size="14.00" fill="grey">Optional</text>
</g>
<!-- 1&#45;&gt;4 -->
<g id="edge1" class="edge"><title>1&#45;&gt;4</title>
<path fill="none" stroke="black" d="M120.56,-191.2C136.89,-185.92 155.2,-180.02 172.54,-174.42"/>
<polygon fill="black" stroke="black" points="173.617,-177.75 182.06,-171.35 171.468,-171.088 173.617,-177.75"/>
</g>
<!-- 4&#45;&gt;6 -->
<g id="edge2" class="edge"><title>4&#45;&gt;6</title>
<path fill="none" stroke="grey" d="M279.68,-183.24C299.82,-200.04 325.92,-220.43 351,-236 356.09,-239.16 361.6,-242.21 367.13,-245.05"/>
<polygon fill="grey" stroke="grey" points="365.836,-248.315 376.35,-249.62 368.945,-242.043 365.836,-248.315"/>
</g>
<!-- 4&#45;&gt;7 -->
<g id="edge3" class="edge"><title>4&#45;&gt;7</title>
<path fill="none" stroke="grey" d="M303.03,-172.22C319.69,-177.93 337.73,-184.1 354.04,-189.69"/>
<polygon fill="grey" stroke="grey" points="353.355,-193.155 363.95,-193.08 355.621,-186.532 353.355,-193.155"/>
</g>
<!-- 4&#45;&gt;8 -->
<g id="edge4" class="edge"><title>4&#45;&gt;8</title>
<path fill="none" stroke="grey" d="M315.24,-152C328.15,-152 341.41,-152 353.71,-152"/>
<polygon fill="grey" stroke="grey" points="353.79,-155.5 363.79,-152 353.79,-148.5 353.79,-155.5"/>
</g>
<!-- 4&#45;&gt;9 -->
<g id="edge5" class="edge"><title>4&#45;&gt;9</title>
<path fill="none" stroke="grey" d="M303.03,-131.78C320.31,-125.86 339.06,-119.44 355.84,-113.69"/>
<polygon fill="grey" stroke="grey" points="357.145,-116.943 365.47,-110.39 354.875,-110.321 357.145,-116.943"/>
</g>
<!-- 4&#45;&gt;5 -->
<g id="edge6" class="edge"><title>4&#45;&gt;5</title>
<path fill="none" stroke="black" d="M270.09,-118.56C288.65,-96.445 315.3,-67.778 349.05,-43.772"/>
<polygon fill="black" stroke="black" points="351.052,-46.6431 357.31,-38.094 347.087,-40.8745 351.052,-46.6431"/>
</g>
<!-- 2&#45;&gt;4 -->
<g id="edge7" class="edge"><title>2&#45;&gt;4</title>
<path fill="none" stroke="black" d="M120.56,-152C133.12,-152 146.85,-152 160.42,-152"/>
<polygon fill="black" stroke="black" points="160.73,-155.5 170.73,-152 160.73,-148.5 160.73,-155.5"/>
</g>
<!-- 3&#45;&gt;4 -->
<g id="edge8" class="edge"><title>3&#45;&gt;4</title>
<path fill="none" stroke="black" d="M127.72,-115.12C142.14,-119.77 157.68,-124.79 172.53,-129.58"/>
<polygon fill="black" stroke="black" points="171.568,-132.947 182.16,-132.69 173.72,-126.286 171.568,-132.947"/>
</g>
<!-- 6 -->
<g id="node1" class="node"><title>6</title>
<polygon fill="none" stroke="grey" points="440.5,-281 376.5,-281 376.5,-245 440.5,-245 440.5,-281"/>
<text text-anchor="middle" x="408.5" y="-259.3" font-family="sans-serif" font-size="14.00" fill="grey">dot file</text>
</g>
<!-- 7 -->
<g id="node2" class="node"><title>7</title>
<polygon fill="none" stroke="grey" points="453,-227 364,-227 364,-189 453,-189 453,-227"/>
<text text-anchor="middle" x="408.5" y="-211.8" font-family="sans-serif" font-size="14.00" fill="grey">Modified</text>
<text text-anchor="middle" x="408.5" y="-196.8" font-family="sans-serif" font-size="14.00" fill="grey">node table</text>
</g>
<!-- 8 -->
<g id="node3" class="node"><title>8</title>
<polygon fill="none" stroke="grey" points="453,-171 364,-171 364,-133 453,-133 453,-171"/>
<text text-anchor="middle" x="408.5" y="-155.8" font-family="sans-serif" font-size="14.00" fill="grey">Modified</text>
<text text-anchor="middle" x="408.5" y="-140.8" font-family="sans-serif" font-size="14.00" fill="grey">edge table</text>
</g>
<!-- 9 -->
<g id="node4" class="node"><title>9</title>
<polygon fill="none" stroke="grey" points="451.5,-115 365.5,-115 365.5,-77 451.5,-77 451.5,-115"/>
<text text-anchor="middle" x="408.5" y="-99.8" font-family="sans-serif" font-size="14.00" fill="grey">Color bars</text>
<text text-anchor="middle" x="408.5" y="-84.8" font-family="sans-serif" font-size="14.00" fill="grey">(svg)</text>
</g>
<!-- 1 -->
<g id="node5" class="node"><title>1</title>
<polygon fill="none" stroke="black" points="120.5,-227 14.5,-227 14.5,-189 120.5,-189 120.5,-227"/>
<text text-anchor="middle" x="67.5" y="-211.8" font-family="sans-serif" font-size="14.00">Node table</text>
<text text-anchor="middle" x="67.5" y="-196.8" font-family="sans-serif" font-size="14.00">(csv/tsv/xlsx)</text>
</g>
<!-- 4 -->
<g id="node6" class="node"><title>4</title>
<ellipse fill="blue" stroke="black" cx="243" cy="-152" rx="72" ry="36"/>
<text text-anchor="middle" x="243" y="-145.1" font-family="sans-serif" font-size="28.00" fill="white">tabnetviz</text>
</g>
<!-- 5 -->
<g id="node7" class="node"><title>5</title>
<polygon fill="none" stroke="black" points="466,-38 351,-38 351,-0 466,-0 466,-38"/>
<text text-anchor="middle" x="408.5" y="-22.8" font-family="sans-serif" font-size="14.00">Drawing</text>
<text text-anchor="middle" x="408.5" y="-7.8" font-family="sans-serif" font-size="14.00">(svg or image)</text>
</g>
<!-- 2 -->
<g id="node8" class="node"><title>2</title>
<polygon fill="none" stroke="black" points="120.5,-171 14.5,-171 14.5,-133 120.5,-133 120.5,-171"/>
<text text-anchor="middle" x="67.5" y="-155.8" font-family="sans-serif" font-size="14.00">Edge table</text>
<text text-anchor="middle" x="67.5" y="-140.8" font-family="sans-serif" font-size="14.00">(csv/tsv/xlsx)</text>
</g>
<!-- 3 -->
<g id="node9" class="node"><title>3</title>
<polygon fill="none" stroke="black" points="135,-115 0,-115 0,-77 135,-77 135,-115"/>
<text text-anchor="middle" x="67.5" y="-99.8" font-family="sans-serif" font-size="14.00">Configuration file</text>
<text text-anchor="middle" x="67.5" y="-84.8" font-family="sans-serif" font-size="14.00">(yaml)</text>
</g>
</g>
</svg>
