<?xml version="1.0" encoding="UTF-8" standalone="no"?>
<!DOCTYPE svg PUBLIC "-//W3C//DTD SVG 1.1//EN"
 "http://www.w3.org/Graphics/SVG/1.1/DTD/svg11.dtd">
<!-- Generated by graphviz version 2.38.0 (20140413.2041)
 -->
<!-- Title: network Pages: 1 -->
<svg width="1604pt" height="2216pt"
 viewBox="0.00 0.00 1604.00 2216.08" xmlns="http://www.w3.org/2000/svg" xmlns:xlink="http://www.w3.org/1999/xlink">
<g id="graph0" class="graph" transform="scale(1 1) rotate(0) translate(980.29 1128.94)">
<title>network</title>
<polygon fill="white" stroke="none" points="-980.29,1087.14 -980.29,-1128.94 623.71,-1128.94 623.71,1087.14 -980.29,1087.14"/>
<!-- ZNF586&#45;&gt;EGR1 -->
<g id="edge1" class="edge"><title>ZNF586&#45;&gt;EGR1</title>
<path fill="none" stroke="#ff4949" stroke-width="7.18919" d="M474.84,-658.22C418.39,-649.18 336.96,-636.15 274.25,-626.12"/>
<polygon fill="#ff4949" stroke="#ff4949" stroke-width="7.18919" points="275.216,-619.904 264.35,-624.54 273.234,-632.328 275.216,-619.904"/>
</g>
<!-- CTCF&#45;&gt;JUN -->
<g id="edge2" class="edge"><title>CTCF&#45;&gt;JUN</title>
<path fill="none" stroke="#4747ff" stroke-width="7.35135" d="M517.2,-529C470.66,-570.41 365.51,-661.46 268.91,-727.31 263.08,-731.29 256.9,-735.26 250.64,-739.11"/>
<polygon fill="#4747ff" stroke="#4747ff" stroke-width="7.35135" points="247.301,-733.612 242.07,-744.29 253.956,-744.622 247.301,-733.612"/>
</g>
<!-- CTCF&#45;&gt;TCL1B -->
<g id="edge3" class="edge"><title>CTCF&#45;&gt;TCL1B</title>
<path fill="none" stroke="#ff5555" stroke-width="6.21622" d="M509.45,-486.59C446.35,-446.83 306.23,-358.56 231.28,-311.34"/>
<polygon fill="#ff5555" stroke="#ff5555" stroke-width="6.21622" points="233.83,-306.518 222.47,-305.79 228.032,-315.722 233.83,-306.518"/>
</g>
<!-- JUN&#45;&gt;FOSB -->
<g id="edge4" class="edge"><title>JUN&#45;&gt;FOSB</title>
<path fill="none" stroke="#ff4a4a" stroke-width="7.02703" d="M181.71,-744.19C181.71,-740.99 181.71,-737.72 181.71,-734.46"/>
<polygon fill="#ff4a4a" stroke="#ff4a4a" stroke-width="7.02703" points="187.859,-734.18 181.71,-724.18 175.561,-734.18 187.859,-734.18"/>
</g>
<!-- ZNF682&#45;&gt;CSF1R -->
<g id="edge5" class="edge"><title>ZNF682&#45;&gt;CSF1R</title>
<path fill="none" stroke="#4141ff" stroke-width="7.83784" d="M-142.45,-6.0565C-78.278,-43.919 56.447,-123.41 130.41,-167.04"/>
<polygon fill="#4141ff" stroke="#4141ff" stroke-width="7.83784" points="127.022,-173.004 139.12,-172.18 133.993,-161.191 127.022,-173.004"/>
</g>
<!-- ZNF682&#45;&gt;SLC22A11 -->
<g id="edge6" class="edge"><title>ZNF682&#45;&gt;SLC22A11</title>
<path fill="none" stroke="#ff8585" stroke-width="2.16216" d="M-192.72,38.951C-206.68,62.366 -228.13,99.246 -244.94,132.15 -359.72,356.81 -328.9,446.83 -480.09,648.79 -486.89,657.87 -495.59,666.47 -504.17,673.9"/>
<polygon fill="#ff8585" stroke="#ff8585" stroke-width="2.16216" points="-502.041,676.682 -511.97,680.38 -506.515,671.298 -502.041,676.682"/>
</g>
<!-- ZNF260&#45;&gt;PHGDH -->
<g id="edge7" class="edge"><title>ZNF260&#45;&gt;PHGDH</title>
<path fill="none" stroke="#ff7f7f" stroke-width="2.64865" d="M-868.52,-50.231C-802.31,-1.047 -643.16,117.18 -572.77,169.47"/>
<polygon fill="#ff7f7f" stroke="#ff7f7f" stroke-width="2.64865" points="-570.58,166.737 -564.64,175.51 -574.754,172.356 -570.58,166.737"/>
</g>
<!-- ZNF627&#45;&gt;RGS2 -->
<g id="edge8" class="edge"><title>ZNF627&#45;&gt;RGS2</title>
<path fill="none" stroke="#4f4fff" stroke-width="6.7027" d="M478.18,-303.62C419.36,-315.39 331.46,-332.97 266.63,-345.93"/>
<polygon fill="#4f4fff" stroke="#4f4fff" stroke-width="6.7027" points="265.086,-340.258 256.43,-347.97 267.386,-351.76 265.086,-340.258"/>
</g>
<!-- ZNF350&#45;&gt;ASNS -->
<g id="edge9" class="edge"><title>ZNF350&#45;&gt;ASNS</title>
<path fill="none" stroke="#ff5c5c" stroke-width="5.56757" d="M504.88,-215.92C440.35,-179.14 306.73,-102.98 233.13,-61.022"/>
<polygon fill="#ff5c5c" stroke="#ff5c5c" stroke-width="5.56757" points="235.13,-56.5545 224.03,-55.832 230.303,-65.018 235.13,-56.5545"/>
</g>
<!-- ZNF350&#45;&gt;TAGLN -->
<g id="edge10" class="edge"><title>ZNF350&#45;&gt;TAGLN</title>
<path fill="none" stroke="#ff7676" stroke-width="3.45946" d="M505.21,-258.08C441.74,-294.9 310.73,-370.89 236.37,-414.01"/>
<polygon fill="#ff7676" stroke="#ff7676" stroke-width="3.45946" points="234.486,-411.057 227.59,-419.1 237.997,-417.113 234.486,-411.057"/>
</g>
<!-- ZNF419&#45;&gt;PTTG1 -->
<g id="edge11" class="edge"><title>ZNF419&#45;&gt;PTTG1</title>
<path fill="none" stroke="#5f5fff" stroke-width="5.24324" d="M509.13,767.26C443.77,723.46 296.7,624.92 224.01,576.23"/>
<polygon fill="#5f5fff" stroke="#5f5fff" stroke-width="5.24324" points="221.278,579.922 215.53,570.54 226.39,572.302 221.278,579.922"/>
</g>
<!-- ZNF419&#45;&gt;NUPR1 -->
<g id="edge12" class="edge"><title>ZNF419&#45;&gt;NUPR1</title>
<path fill="none" stroke="#ff4343" stroke-width="7.67568" d="M518.08,766.27C513.86,762.01 509.56,757.54 505.63,753.24 498.57,745.52 497.25,743.2 490.62,735.12 383.08,604.14 368.91,560.05 249.91,439.39 240.59,429.93 229.83,420.38 219.66,411.87"/>
<polygon fill="#ff4343" stroke="#ff4343" stroke-width="7.67568" points="215.117,416.829 211.66,405.29 223.65,406.455 215.117,416.829"/>
</g>
<!-- ZBTB4&#45;&gt;RGS2 -->
<g id="edge13" class="edge"><title>ZBTB4&#45;&gt;RGS2</title>
<path fill="none" stroke="#5e5eff" stroke-width="5.40541" d="M474.42,-348.28C415.6,-351.22 329.91,-355.5 266.43,-358.68"/>
<polygon fill="#5e5eff" stroke="#5e5eff" stroke-width="5.40541" points="266.191,-353.956 256.44,-359.18 266.664,-363.404 266.191,-353.956"/>
</g>
<!-- ZNF331&#45;&gt;ITGA5 -->
<g id="edge14" class="edge"><title>ZNF331&#45;&gt;ITGA5</title>
<path fill="none" stroke="#5656ff" stroke-width="6.05405" d="M-874.91,125.46C-826.98,172.08 -713.35,280.33 -609.99,361.79 -599.3,370.21 -587.26,378.8 -576.14,386.41"/>
<polygon fill="#5656ff" stroke="#5656ff" stroke-width="6.05405" points="-573.176,382.02 -567.86,392.01 -579.111,390.796 -573.176,382.02"/>
</g>
<!-- ZNF331&#45;&gt;ESAM -->
<g id="edge15" class="edge"><title>ZNF331&#45;&gt;ESAM</title>
<path fill="none" stroke="#5b5bff" stroke-width="5.72973" d="M-877.05,125.87C-861.06,143.47 -838.6,168.2 -818.9,189.91 -720.86,298 -703.96,332.43 -598.49,433.29 -589.84,441.55 -580.01,450.03 -570.84,457.6"/>
<polygon fill="#5b5bff" stroke="#5b5bff" stroke-width="5.72973" points="-567.588,453.782 -562.99,463.98 -573.912,461.564 -567.588,453.782"/>
</g>
<!-- ZNF331&#45;&gt;COLEC12 -->
<g id="edge16" class="edge"><title>ZNF331&#45;&gt;COLEC12</title>
<path fill="none" stroke="#ff5c5c" stroke-width="5.56757" d="M-868.84,80.108C-816.11,40.059 -701.96,-46.292 -604.49,-117.61 -595.93,-123.87 -586.71,-130.52 -577.94,-136.8"/>
<polygon fill="#ff5c5c" stroke="#ff5c5c" stroke-width="5.56757" points="-580.679,-140.831 -569.71,-142.68 -575.015,-132.903 -580.679,-140.831"/>
</g>
<!-- ZNF331&#45;&gt;CRH -->
<g id="edge17" class="edge"><title>ZNF331&#45;&gt;CRH</title>
<path fill="none" stroke="#6b6bff" stroke-width="4.27027" d="M-874.18,79.396C-857.84,62.688 -836.71,38.91 -822.44,14.847 -685.31,-216.5 -781.71,-344.31 -610.99,-552.11 -607.31,-556.59 -603.06,-560.74 -598.5,-564.57"/>
<polygon fill="#6b6bff" stroke="#6b6bff" stroke-width="4.27027" points="-600.775,-567.534 -590.58,-570.7 -596.201,-561.624 -600.775,-567.534"/>
</g>
<!-- ZNF331&#45;&gt;SERPINF1 -->
<g id="edge18" class="edge"><title>ZNF331&#45;&gt;SERPINF1</title>
<path fill="none" stroke="#ff5858" stroke-width="5.89189" d="M-865.38,124.14C-798.8,167.89 -648.38,266.74 -577.12,313.56"/>
<polygon fill="#ff5858" stroke="#ff5858" stroke-width="5.89189" points="-573.948,309.476 -568.43,319.28 -579.617,318.088 -573.948,309.476"/>
</g>
<!-- MYC&#45;&gt;CCND1 -->
<g id="edge19" class="edge"><title>MYC&#45;&gt;CCND1</title>
<path fill="none" stroke="#ff5b5b" stroke-width="5.72973" d="M510.4,662.3C446.86,624.17 302.55,537.59 228.08,492.91"/>
<polygon fill="#ff5b5b" stroke="#ff5b5b" stroke-width="5.72973" points="225.349,497.118 219.36,487.67 230.514,488.523 225.349,497.118"/>
</g>
<!-- ZNF329&#45;&gt;RGS2 -->
<g id="edge20" class="edge"><title>ZNF329&#45;&gt;RGS2</title>
<path fill="none" stroke="#4343ff" stroke-width="7.67568" d="M510,-96.819C503.77,-101.3 497.32,-106.07 491.4,-110.67 481.6,-118.29 479.57,-120.71 470.11,-128.75 376,-208.75 356.03,-233.13 258.41,-308.81 248.86,-316.23 238.39,-323.89 228.35,-331.03"/>
<polygon fill="#4343ff" stroke="#4343ff" stroke-width="7.67568" points="224.345,-325.636 220.05,-336.89 232.093,-336.609 224.345,-325.636"/>
</g>
<!-- ZNF329&#45;&gt;FOS -->
<g id="edge21" class="edge"><title>ZNF329&#45;&gt;FOS</title>
<path fill="none" stroke="#5555ff" stroke-width="6.21622" d="M507.06,-96.297C494.39,-105.25 480.6,-116.44 470.11,-128.75 353.24,-265.89 384,-344.77 259.91,-475.41 254.07,-481.57 247.39,-487.41 240.45,-492.81"/>
<polygon fill="#5555ff" stroke="#5555ff" stroke-width="6.21622" points="237.003,-488.595 232.23,-498.93 243.499,-497.321 237.003,-488.595"/>
</g>
<!-- ZNF329&#45;&gt;ERVFRD&#45;1 -->
<g id="edge22" class="edge"><title>ZNF329&#45;&gt;ERVFRD&#45;1</title>
<path fill="none" stroke="#4747ff" stroke-width="7.35135" d="M505.21,-53.744C440.33,-16.112 304.86,62.464 231.49,105.02"/>
<polygon fill="#4747ff" stroke="#4747ff" stroke-width="7.35135" points="234.307,110.822 222.43,110.27 227.857,99.6907 234.307,110.822"/>
</g>
<!-- ZNF444&#45;&gt;EGR1 -->
<g id="edge23" class="edge"><title>ZNF444&#45;&gt;EGR1</title>
<path fill="none" stroke="#7d7dff" stroke-width="2.81081" d="M498.65,-757.1C438.51,-729.44 328.54,-678.85 255.28,-645.15"/>
<polygon fill="#7d7dff" stroke="#7d7dff" stroke-width="2.81081" points="256.638,-641.922 246.09,-640.93 253.717,-648.284 256.638,-641.922"/>
</g>
<!-- ZNF444&#45;&gt;JUN -->
<g id="edge24" class="edge"><title>ZNF444&#45;&gt;JUN</title>
<path fill="none" stroke="#7171ff" stroke-width="3.78378" d="M467.12,-776.91C413.49,-776.91 340.57,-776.91 281.87,-776.91"/>
<polygon fill="#7171ff" stroke="#7171ff" stroke-width="3.78378" points="281.83,-773.41 271.83,-776.91 281.83,-780.41 281.83,-773.41"/>
</g>
<!-- ZNF444&#45;&gt;CSF1R -->
<g id="edge25" class="edge"><title>ZNF444&#45;&gt;CSF1R</title>
<path fill="none" stroke="#ff8080" stroke-width="2.48649" d="M518.79,-753.64C514.9,-749.48 510.96,-745.13 507.36,-740.93 483.34,-712.86 482.51,-701.89 465.87,-668.9 372.54,-483.92 393.29,-408.7 258.41,-251.41 251.27,-243.08 242.57,-235.39 233.63,-228.57"/>
<polygon fill="#ff8080" stroke="#ff8080" stroke-width="2.48649" points="235.542,-225.633 225.4,-222.57 231.419,-231.289 235.542,-225.633"/>
</g>
<!-- ZNF320&#45;&gt;PTTG1 -->
<g id="edge26" class="edge"><title>ZNF320&#45;&gt;PTTG1</title>
<path fill="none" stroke="#7d7dff" stroke-width="2.81081" d="M481.05,479.04C419.3,493.24 323.43,515.29 256.9,530.59"/>
<polygon fill="#7d7dff" stroke="#7d7dff" stroke-width="2.81081" points="257.421,534.062 246.89,532.9 255.847,527.241 257.421,534.062"/>
</g>
<!-- ZNF223&#45;&gt;RGS2 -->
<g id="edge27" class="edge"><title>ZNF223&#45;&gt;RGS2</title>
<path fill="none" stroke="#ff7676" stroke-width="3.45946" d="M507.24,-42.308C493.67,-51.507 478.37,-62.884 465.87,-74.824 365.37,-170.83 361.99,-216.14 258.41,-308.81 249.87,-316.46 240.22,-323.99 230.73,-330.89"/>
<polygon fill="#ff7676" stroke="#ff7676" stroke-width="3.45946" points="228.575,-328.128 222.46,-336.78 232.636,-333.83 228.575,-328.128"/>
</g>
<!-- ZNF223&#45;&gt;NFKBIZ -->
<g id="edge28" class="edge"><title>ZNF223&#45;&gt;NFKBIZ</title>
<path fill="none" stroke="#ff7676" stroke-width="3.45946" d="M508.41,0.60788C501.58,5.2296 494.49,10.173 488,14.982 477.78,22.556 475.33,24.621 465.87,33.124 366.84,122.15 352.15,155.15 252.41,243.39 242.51,252.15 231.44,261.24 221.07,269.48"/>
<polygon fill="#ff7676" stroke="#ff7676" stroke-width="3.45946" points="222.947,272.457 212.92,275.88 218.623,266.951 222.947,272.457"/>
</g>
<!-- ZNF626&#45;&gt;HOPX -->
<g id="edge29" class="edge"><title>ZNF626&#45;&gt;HOPX</title>
<path fill="none" stroke="#ff7979" stroke-width="3.13514" d="M467.12,627.83C405.38,628.45 318.08,629.32 256.33,629.94"/>
<polygon fill="#ff7979" stroke="#ff7979" stroke-width="3.13514" points="256.294,633.44 246.26,630.04 256.225,626.441 256.294,633.44"/>
</g>
<!-- ZNF529&#45;&gt;JUN -->
<g id="edge30" class="edge"><title>ZNF529&#45;&gt;JUN</title>
<path fill="none" stroke="#ff6565" stroke-width="4.75676" d="M-161.82,-242.67C-145.91,-266.01 -121.48,-302.85 -102.44,-336.06 -5.6292,-504.96 -39.604,-586.2 94.514,-727.31 98.097,-731.08 102.03,-734.65 106.18,-738.01"/>
<polygon fill="#ff6565" stroke="#ff6565" stroke-width="4.75676" points="103.916,-741.515 114.41,-744.2 108.92,-734.863 103.916,-741.515"/>
</g>
<!-- ZNF529&#45;&gt;FOSB -->
<g id="edge31" class="edge"><title>ZNF529&#45;&gt;FOSB</title>
<path fill="none" stroke="#ff4747" stroke-width="7.35135" d="M-162.87,-242.69C-147.54,-266.35 -123.34,-303.7 -102.44,-336.06 -14.093,-472.84 -21.595,-531.41 96.014,-644.01 101.23,-649.01 107.04,-653.72 113.11,-658.09"/>
<polygon fill="#ff4747" stroke="#ff4747" stroke-width="7.35135" points="109.625,-663.5 121.51,-663.85 116.9,-652.89 109.625,-663.5"/>
</g>
<!-- ZNF529&#45;&gt;PTTG1 -->
<g id="edge32" class="edge"><title>ZNF529&#45;&gt;PTTG1</title>
<path fill="none" stroke="#ff5252" stroke-width="6.37838" d="M-163.38,-195.29C-149.08,-172.06 -127.38,-135.33 -111.63,-101.92 8.5037,152.98 -49.846,261.18 113.51,490.79 120.86,501.11 130.51,510.68 140.22,518.93"/>
<polygon fill="#ff5252" stroke="#ff5252" stroke-width="6.37838" points="143.742,514.601 147.98,525.24 136.7,523.261 143.742,514.601"/>
</g>
<!-- ZNF529&#45;&gt;IGFBP3 -->
<g id="edge33" class="edge"><title>ZNF529&#45;&gt;IGFBP3</title>
<path fill="none" stroke="#4d4dff" stroke-width="6.86486" d="M-252.01,-222.6C-313.58,-225.68 -401.01,-230.05 -463.01,-233.15"/>
<polygon fill="#4d4dff" stroke="#4d4dff" stroke-width="6.86486" points="-463.445,-227.157 -473.13,-233.66 -462.84,-239.156 -463.445,-227.157"/>
</g>
<!-- ZNF529&#45;&gt;NFKBIZ -->
<g id="edge34" class="edge"><title>ZNF529&#45;&gt;NFKBIZ</title>
<path fill="none" stroke="#ff4444" stroke-width="7.51351" d="M-164.79,-195.04C-117.35,-111.48 42.618,166.9 111.01,243.39 119.34,252.69 129.33,261.64 139.14,269.55"/>
<polygon fill="#ff4444" stroke="#ff4444" stroke-width="7.51351" points="143.483,264.601 147.31,275.94 135.383,274.958 143.483,264.601"/>
</g>
<!-- ZNF529&#45;&gt;CD24 -->
<g id="edge35" class="edge"><title>ZNF529&#45;&gt;CD24</title>
<path fill="none" stroke="#ff5c5c" stroke-width="5.56757" d="M-193.75,-194.99C-208.28,-171.83 -229.95,-135.41 -244.94,-101.91 -374.88,188.5 -287.59,317.94 -472.59,576.79 -479.5,586.46 -488.81,595.13 -498.24,602.45"/>
<polygon fill="#ff5c5c" stroke="#ff5c5c" stroke-width="5.56757" points="-495.564,606.529 -506.51,608.51 -501.323,598.67 -495.564,606.529"/>
</g>
<!-- ZNF529&#45;&gt;PNP -->
<g id="edge36" class="edge"><title>ZNF529&#45;&gt;PNP</title>
<path fill="none" stroke="#ff7979" stroke-width="3.13514" d="M-148.83,-196.82C-84.552,-148.61 68.345,-33.941 141.44,20.883"/>
<polygon fill="#ff7979" stroke="#ff7979" stroke-width="3.13514" points="143.628,18.1491 149.53,26.948 139.429,23.75 143.628,18.1491"/>
</g>
<!-- ZNF529&#45;&gt;DENND2A -->
<g id="edge37" class="edge"><title>ZNF529&#45;&gt;DENND2A</title>
<path fill="none" stroke="#4343ff" stroke-width="7.67568" d="M-211.51,-240.51C-276.66,-282.86 -421.18,-376.8 -494.22,-424.27"/>
<polygon fill="#4343ff" stroke="#4343ff" stroke-width="7.67568" points="-498.035,-418.739 -502.76,-429.82 -490.715,-430.002 -498.035,-418.739"/>
</g>
<!-- KLF10&#45;&gt;TIMP2 -->
<g id="edge38" class="edge"><title>KLF10&#45;&gt;TIMP2</title>
<path fill="none" stroke="#4747ff" stroke-width="7.35135" d="M-207.23,227.28C-260.15,187.43 -376.1,100.17 -474.09,26.886 -482.77,20.39 -492.13,13.411 -500.94,6.8486"/>
<polygon fill="#4747ff" stroke="#4747ff" stroke-width="7.35135" points="-505.001,11.8447 -509.18,0.71308 -497.318,1.52608 -505.001,11.8447"/>
</g>
<!-- KLF10&#45;&gt;ISYNA1 -->
<g id="edge39" class="edge"><title>KLF10&#45;&gt;ISYNA1</title>
<path fill="none" stroke="#ff5656" stroke-width="6.05405" d="M-164.27,272.65C-125.04,337.66 -8.8964,523.47 114.01,656.39 123.25,666.37 134.18,676.27 144.54,684.96"/>
<polygon fill="#ff5656" stroke="#ff5656" stroke-width="6.05405" points="147.943,680.9 152.31,691.34 141.22,689.088 147.943,680.9"/>
</g>
<!-- TFCP2&#45;&gt;CTGF -->
<g id="edge40" class="edge"><title>TFCP2&#45;&gt;CTGF</title>
<path fill="none" stroke="#6868ff" stroke-width="4.59459" d="M-863.11,-139.17C-797.37,-100.66 -655.94,-17.829 -583.33,24.702"/>
<polygon fill="#6868ff" stroke="#6868ff" stroke-width="4.59459" points="-580.998,21.4087 -574.4,29.931 -585.061,28.3472 -580.998,21.4087"/>
</g>
<!-- ZBTB34&#45;&gt;PTTG1 -->
<g id="edge41" class="edge"><title>ZBTB34&#45;&gt;PTTG1</title>
<path fill="none" stroke="#4d4dff" stroke-width="6.86486" d="M514.46,1036.3C504.64,1027.3 493.95,1016.4 485.67,1005.2 362.63,839.3 382.75,762.75 249.41,604.99 241.03,595.07 230.82,585.49 220.89,577.09"/>
<polygon fill="#4d4dff" stroke="#4d4dff" stroke-width="6.86486" points="216.942,581.62 213.03,570.63 224.57,572.339 216.942,581.62"/>
</g>
<!-- ZNF33B&#45;&gt;CTGF -->
<g id="edge42" class="edge"><title>ZNF33B&#45;&gt;CTGF</title>
<path fill="none" stroke="#4f4fff" stroke-width="6.7027" d="M-849.36,171.07C-785.46,146.43 -673.44,103.22 -602.69,75.929"/>
<polygon fill="#4f4fff" stroke="#4f4fff" stroke-width="6.7027" points="-604.441,70.3184 -593,72.188 -600.217,81.2609 -604.441,70.3184"/>
</g>
<!-- NFKB1&#45;&gt;CSF1R -->
<g id="edge43" class="edge"><title>NFKB1&#45;&gt;CSF1R</title>
<path fill="none" stroke="#5b5bff" stroke-width="5.72973" d="M480.24,-140.59C420.54,-151.94 329.55,-169.23 263.71,-181.73"/>
<polygon fill="#5b5bff" stroke="#5b5bff" stroke-width="5.72973" points="262.666,-176.825 253.78,-183.62 264.541,-186.675 262.666,-176.825"/>
</g>
<!-- ZNF34&#45;&gt;JUN -->
<g id="edge44" class="edge"><title>ZNF34&#45;&gt;JUN</title>
<path fill="none" stroke="#ff4d4d" stroke-width="6.86486" d="M500.42,-920.33C442.86,-894.43 337.28,-846.92 263.47,-813.7"/>
<polygon fill="#ff4d4d" stroke="#ff4d4d" stroke-width="6.86486" points="265.764,-808.145 254.18,-809.52 260.835,-819.101 265.764,-808.145"/>
</g>
<!-- ZNF34&#45;&gt;FOS -->
<g id="edge45" class="edge"><title>ZNF34&#45;&gt;FOS</title>
<path fill="none" stroke="#ff4747" stroke-width="7.35135" d="M506.61,-918.63C492.78,-909.49 477.47,-897.81 465.87,-884.74 358.23,-763.48 384.68,-690.59 267.41,-578.61 262.02,-573.46 255.99,-568.61 249.71,-564.12"/>
<polygon fill="#ff4747" stroke="#ff4747" stroke-width="7.35135" points="252.897,-558.509 241.01,-558.22 245.676,-569.156 252.897,-558.509"/>
</g>
<!-- ZNF69&#45;&gt;PHGDH -->
<g id="edge46" class="edge"><title>ZNF69&#45;&gt;PHGDH</title>
<path fill="none" stroke="#7979ff" stroke-width="3.13514" d="M-204.24,-79.6C-255.54,-35.627 -373.79,65.053 -475.59,146.79 -484.87,154.24 -495.05,162.18 -504.45,169.42"/>
<polygon fill="#7979ff" stroke="#7979ff" stroke-width="3.13514" points="-502.415,172.27 -512.48,175.58 -506.676,166.716 -502.415,172.27"/>
</g>
<!-- ZNF69&#45;&gt;NFKBIZ -->
<g id="edge47" class="edge"><title>ZNF69&#45;&gt;NFKBIZ</title>
<path fill="none" stroke="#ff7777" stroke-width="3.2973" d="M-161.16,-78.313C-118.56,-20.349 -3.0109,132.36 111.01,243.39 120.32,252.44 131,261.51 141.2,269.64"/>
<polygon fill="#ff7777" stroke="#ff7777" stroke-width="3.2973" points="143.527,267.017 149.24,275.94 139.21,272.527 143.527,267.017"/>
</g>
<!-- E2F3&#45;&gt;FOS -->
<g id="edge48" class="edge"><title>E2F3&#45;&gt;FOS</title>
<path fill="none" stroke="#ff5555" stroke-width="6.21622" d="M489.37,-556.2C433.26,-551.15 343.05,-543.03 274.79,-536.89"/>
<polygon fill="#ff5555" stroke="#ff5555" stroke-width="6.21622" points="274.907,-531.439 264.46,-535.96 273.932,-542.274 274.907,-531.439"/>
</g>
<!-- ZNF621&#45;&gt;CTGF -->
<g id="edge49" class="edge"><title>ZNF621&#45;&gt;CTGF</title>
<path fill="none" stroke="#6868ff" stroke-width="4.59459" d="M-827.16,22.198C-764.17,28.497 -672.7,37.645 -609.64,43.95"/>
<polygon fill="#6868ff" stroke="#6868ff" stroke-width="4.59459" points="-608.93,39.9806 -599.38,44.976 -609.73,47.9812 -608.93,39.9806"/>
</g>
<!-- ZNF621&#45;&gt;MT1E -->
<g id="edge50" class="edge"><title>ZNF621&#45;&gt;MT1E</title>
<path fill="none" stroke="#ff5858" stroke-width="5.89189" d="M-843.61,31.489C-780.52,50.414 -676.66,81.572 -607.87,102.21"/>
<polygon fill="#ff5858" stroke="#ff5858" stroke-width="5.89189" points="-606.075,97.3662 -597.98,105.18 -609.04,107.241 -606.075,97.3662"/>
</g>
<!-- ZNF274&#45;&gt;NT5E -->
<g id="edge51" class="edge"><title>ZNF274&#45;&gt;NT5E</title>
<path fill="none" stroke="#ff5555" stroke-width="6.21622" d="M-824.57,-512.65C-764.45,-515.22 -679.7,-518.85 -618.01,-521.5"/>
<polygon fill="#ff5555" stroke="#ff5555" stroke-width="6.21622" points="-618.153,-526.938 -607.93,-521.93 -617.689,-516.069 -618.153,-526.938"/>
</g>
<!-- NFYC&#45;&gt;NUPR1 -->
<g id="edge52" class="edge"><title>NFYC&#45;&gt;NUPR1</title>
<path fill="none" stroke="#8686ff" stroke-width="2" d="M505.21,214.07C441.45,247.23 309.49,315.84 235.32,354.41"/>
<polygon fill="#8686ff" stroke="#8686ff" stroke-width="2" points="236.617,357.681 226.13,359.19 233.387,351.47 236.617,357.681"/>
</g>
<!-- RELA&#45;&gt;EGR1 -->
<g id="edge53" class="edge"><title>RELA&#45;&gt;EGR1</title>
<path fill="none" stroke="#7676ff" stroke-width="3.45946" d="M512.05,-972.15C499.82,-962.79 485.97,-951.09 475.06,-938.86 372.64,-824.12 384.04,-762.89 268.91,-660.91 263.14,-655.8 256.75,-650.97 250.14,-646.48"/>
<polygon fill="#7676ff" stroke="#7676ff" stroke-width="3.45946" points="251.963,-643.491 241.67,-640.98 248.151,-649.362 251.963,-643.491"/>
</g>
<!-- PRDM4&#45;&gt;MT1E -->
<g id="edge54" class="edge"><title>PRDM4&#45;&gt;MT1E</title>
<path fill="none" stroke="#ff7979" stroke-width="3.13514" d="M-866.02,343.14C-799.85,298.71 -649,197.42 -577.4,149.35"/>
<polygon fill="#ff7979" stroke="#ff7979" stroke-width="3.13514" points="-579.322,146.425 -569.07,143.75 -575.416,152.234 -579.322,146.425"/>
</g>
<!-- PRDM4&#45;&gt;HTRA4 -->
<g id="edge55" class="edge"><title>PRDM4&#45;&gt;HTRA4</title>
<path fill="none" stroke="#ff4747" stroke-width="7.35135" d="M-841.64,349.42C-777.85,332.11 -674.23,303.99 -606.17,285.51"/>
<polygon fill="#ff4747" stroke="#ff4747" stroke-width="7.35135" points="-607.724,279.267 -596.39,282.86 -604.36,291.684 -607.724,279.267"/>
</g>
<!-- ZNF212&#45;&gt;JUN -->
<g id="edge56" class="edge"><title>ZNF212&#45;&gt;JUN</title>
<path fill="none" stroke="#ff7c7c" stroke-width="2.97297" d="M503,-203.61C489.66,-212.36 475.64,-223.63 465.87,-236.91 326.72,-426.13 423.39,-550.39 268.91,-727.31 265.56,-731.15 261.84,-734.76 257.87,-738.14"/>
<polygon fill="#ff7c7c" stroke="#ff7c7c" stroke-width="2.97297" points="255.666,-735.42 249.98,-744.36 260,-740.918 255.666,-735.42"/>
</g>
<!-- ZNF212&#45;&gt;CSF1R -->
<g id="edge57" class="edge"><title>ZNF212&#45;&gt;CSF1R</title>
<path fill="none" stroke="#7777ff" stroke-width="3.2973" d="M467.99,-185.86C408.66,-188.24 325.32,-191.57 263.85,-194.03"/>
<polygon fill="#7777ff" stroke="#7777ff" stroke-width="3.2973" points="263.653,-190.535 253.8,-194.43 263.931,-197.529 263.653,-190.535"/>
</g>
<!-- ZNF212&#45;&gt;NREP -->
<g id="edge58" class="edge"><title>ZNF212&#45;&gt;NREP</title>
<path fill="none" stroke="#ff7f7f" stroke-width="2.64865" d="M503.79,-162.16C491.21,-153.44 478.33,-142.18 470.11,-128.75 262.35,210.56 458.88,400.73 248.91,738.69 242.07,749.71 232.43,759.72 222.58,768.2"/>
<polygon fill="#ff7f7f" stroke="#ff7f7f" stroke-width="2.64865" points="224.647,771.031 214.69,774.65 220.217,765.611 224.647,771.031"/>
</g>
<!-- ZNF549&#45;&gt;PHGDH -->
<g id="edge59" class="edge"><title>ZNF549&#45;&gt;PHGDH</title>
<path fill="none" stroke="#6464ff" stroke-width="4.91892" d="M-837.62,263.51C-773.68,248.89 -673.16,225.91 -606.5,210.68"/>
<polygon fill="#6464ff" stroke="#6464ff" stroke-width="4.91892" points="-607.219,206.429 -596.51,208.39 -605.295,214.82 -607.219,206.429"/>
</g>
<!-- GRHL2&#45;&gt;NFKBIZ -->
<g id="edge60" class="edge"><title>GRHL2&#45;&gt;NFKBIZ</title>
<path fill="none" stroke="#7c7cff" stroke-width="2.97297" d="M476.52,258.21C415.36,266.78 323.85,279.59 259.03,288.66"/>
<polygon fill="#7c7cff" stroke="#7c7cff" stroke-width="2.97297" points="259.248,292.163 248.86,290.08 258.28,285.231 259.248,292.163"/>
</g>
<!-- ZNF266&#45;&gt;CSF1R -->
<g id="edge61" class="edge"><title>ZNF266&#45;&gt;CSF1R</title>
<path fill="none" stroke="#ff7d7d" stroke-width="2.81081" d="M504.54,-378.1C440.63,-342.31 309.66,-268.96 235.68,-227.54"/>
<polygon fill="#ff7d7d" stroke="#ff7d7d" stroke-width="2.81081" points="236.954,-224.241 226.52,-222.4 233.528,-230.346 236.954,-224.241"/>
</g>
<!-- ZNF266&#45;&gt;RGS2 -->
<g id="edge62" class="edge"><title>ZNF266&#45;&gt;RGS2</title>
<path fill="none" stroke="#7777ff" stroke-width="3.2973" d="M470.59,-391.8C411.97,-385.94 328.67,-377.61 266.57,-371.4"/>
<polygon fill="#7777ff" stroke="#7777ff" stroke-width="3.2973" points="266.71,-367.897 256.41,-370.38 266.01,-374.861 266.71,-367.897"/>
</g>
<!-- RFX5&#45;&gt;CYP11A1 -->
<g id="edge63" class="edge"><title>RFX5&#45;&gt;CYP11A1</title>
<path fill="none" stroke="#5b5bff" stroke-width="5.72973" d="M-851.22,465.68C-790.06,483.15 -682.63,513.84 -610.96,534.32"/>
<polygon fill="#5b5bff" stroke="#5b5bff" stroke-width="5.72973" points="-609.336,529.57 -601.1,537.14 -612.093,539.21 -609.336,529.57"/>
</g>
<!-- HES1&#45;&gt;EGR1 -->
<g id="edge64" class="edge"><title>HES1&#45;&gt;EGR1</title>
<path fill="none" stroke="#ff4040" stroke-width="8" d="M485.07,-614.35C428.66,-613.78 341.11,-612.91 274.54,-612.24"/>
<polygon fill="#ff4040" stroke="#ff4040" stroke-width="8" points="274.529,-605.24 264.46,-612.14 274.39,-619.239 274.529,-605.24"/>
</g>
<!-- ZNF394&#45;&gt;SERPINF1 -->
<g id="edge65" class="edge"><title>ZNF394&#45;&gt;SERPINF1</title>
<path fill="none" stroke="#ff4949" stroke-width="7.18919" d="M-225.35,464.26C-290.7,438.12 -408.86,390.86 -479.8,362.48"/>
<polygon fill="#ff4949" stroke="#ff4949" stroke-width="7.18919" points="-482.53,368.163 -489.48,358.61 -477.859,356.481 -482.53,368.163"/>
</g>
<!-- ZNF394&#45;&gt;HOPX -->
<g id="edge66" class="edge"><title>ZNF394&#45;&gt;HOPX</title>
<path fill="none" stroke="#6464ff" stroke-width="4.91892" d="M-131.96,502.08C-68.531,528.09 45.63,574.89 117.34,604.29"/>
<polygon fill="#6464ff" stroke="#6464ff" stroke-width="4.91892" points="119.11,600.364 126.73,608.14 115.845,608.329 119.11,600.364"/>
</g>
<!-- IRF9&#45;&gt;NREP -->
<g id="edge67" class="edge"><title>IRF9&#45;&gt;NREP</title>
<path fill="none" stroke="#7979ff" stroke-width="3.13514" d="M494.65,743.09C433.76,753.44 327.02,771.58 255.35,783.77"/>
<polygon fill="#7979ff" stroke="#7979ff" stroke-width="3.13514" points="255.926,787.222 245.48,785.45 254.751,780.322 255.926,787.222"/>
</g>
<!-- ZFX&#45;&gt;PHGDH -->
<g id="edge68" class="edge"><title>ZFX&#45;&gt;PHGDH</title>
<path fill="none" stroke="#8686ff" stroke-width="2" d="M-211.83,350.15C-275.27,320.02 -413.15,254.53 -487.81,219.06"/>
<polygon fill="#8686ff" stroke="#8686ff" stroke-width="2" points="-489.506,222.129 -497.04,214.68 -486.505,215.805 -489.506,222.129"/>
</g>
<!-- ZFX&#45;&gt;ISYNA1 -->
<g id="edge69" class="edge"><title>ZFX&#45;&gt;ISYNA1</title>
<path fill="none" stroke="#ff4a4a" stroke-width="7.02703" d="M-157.59,387.82C-110.55,436.94 8.5088,559.79 114.01,656.39 124.41,665.9 136.03,675.92 146.68,684.86"/>
<polygon fill="#ff4a4a" stroke="#ff4a4a" stroke-width="7.02703" points="150.859,680.339 154.59,691.47 142.974,689.776 150.859,680.339"/>
</g>
<!-- ZFX&#45;&gt;NREP -->
<g id="edge70" class="edge"><title>ZFX&#45;&gt;NREP</title>
<path fill="none" stroke="#ff6b6b" stroke-width="4.27027" d="M-162.86,388.73C-121.46,448.81 -3.0307,616.03 114.51,738.69 124.26,748.85 135.64,759.12 146.23,768.12"/>
<polygon fill="#ff6b6b" stroke="#ff6b6b" stroke-width="4.27027" points="148.856,765.444 154.14,774.72 144.068,771.182 148.856,765.444"/>
</g>
<!-- ZFX&#45;&gt;CYP11A1 -->
<g id="edge71" class="edge"><title>ZFX&#45;&gt;CYP11A1</title>
<path fill="none" stroke="#4949ff" stroke-width="7.18919" d="M-210.23,382.86C-274.67,416.69 -420.35,493.17 -493.95,531.81"/>
<polygon fill="#4949ff" stroke="#4949ff" stroke-width="7.18919" points="-491.202,537.472 -502.98,536.55 -497.049,526.332 -491.202,537.472"/>
</g>
<!-- ZFX&#45;&gt;MPP1 -->
<g id="edge72" class="edge"><title>ZFX&#45;&gt;MPP1</title>
<path fill="none" stroke="#ff5f5f" stroke-width="5.24324" d="M-142.78,351.35C-82.818,326.47 39.418,275.74 115.56,244.14"/>
<polygon fill="#ff5f5f" stroke="#ff5f5f" stroke-width="5.24324" points="114.075,239.789 125.07,240.19 117.595,248.263 114.075,239.789"/>
</g>
<!-- ZNF823&#45;&gt;PAPPA -->
<g id="edge73" class="edge"><title>ZNF823&#45;&gt;PAPPA</title>
<path fill="none" stroke="#7676ff" stroke-width="3.45946" d="M-828.02,-414.03C-766.67,-407.02 -677.82,-396.86 -614.72,-389.65"/>
<polygon fill="#7676ff" stroke="#7676ff" stroke-width="3.45946" points="-613.966,-393.087 -604.43,-388.47 -614.764,-386.132 -613.966,-393.087"/>
</g>
<!-- SRF&#45;&gt;EGR1 -->
<g id="edge74" class="edge"><title>SRF&#45;&gt;EGR1</title>
<path fill="none" stroke="#ff6b6b" stroke-width="4.27027" d="M501.47,-710.44C446.86,-693.51 347.68,-662.76 274.21,-639.99"/>
<polygon fill="#ff6b6b" stroke="#ff6b6b" stroke-width="4.27027" points="275.138,-636.366 264.48,-636.97 272.923,-643.503 275.138,-636.366"/>
</g>
<!-- SRF&#45;&gt;TAGLN -->
<g id="edge75" class="edge"><title>SRF&#45;&gt;TAGLN</title>
<path fill="none" stroke="#7f7fff" stroke-width="2.64865" d="M512.4,-704.05C504.4,-698.7 495.81,-692.77 488.06,-687.04 477.82,-679.46 475.6,-677.12 465.87,-668.9 376.44,-593.4 362.45,-564.11 267.41,-495.81 258.63,-489.5 249,-483.27 239.46,-477.46"/>
<polygon fill="#7f7fff" stroke="#7f7fff" stroke-width="2.64865" points="241.139,-474.386 230.76,-472.26 237.548,-480.395 241.139,-474.386"/>
</g>
<!-- SP2&#45;&gt;NREP -->
<g id="edge76" class="edge"><title>SP2&#45;&gt;NREP</title>
<path fill="none" stroke="#6868ff" stroke-width="4.59459" d="M506.87,936.1C445.36,909.65 316.88,854.41 241.14,821.84"/>
<polygon fill="#6868ff" stroke="#6868ff" stroke-width="4.59459" points="239.319,825.433 231.72,817.79 242.495,818.046 239.319,825.433"/>
</g>
<!-- EGR2&#45;&gt;SLC7A1 -->
<g id="edge77" class="edge"><title>EGR2&#45;&gt;SLC7A1</title>
<path fill="none" stroke="#6b6bff" stroke-width="4.27027" d="M-840.45,-330.5C-778.81,-326.09 -681.01,-319.11 -613.45,-314.28"/>
<polygon fill="#6b6bff" stroke="#6b6bff" stroke-width="4.27027" points="-613.001,-317.994 -603.29,-313.56 -613.529,-310.54 -613.001,-317.994"/>
</g>
<!-- SP1&#45;&gt;EGR1 -->
<g id="edge78" class="edge"><title>SP1&#45;&gt;EGR1</title>
<path fill="none" stroke="#5656ff" stroke-width="6.05405" d="M512.88,-812.41C463.36,-780.77 358.81,-714.46 268.91,-660.91 260.7,-656.02 251.99,-650.94 243.39,-645.98"/>
<polygon fill="#5656ff" stroke="#5656ff" stroke-width="6.05405" points="245.79,-641.25 234.48,-640.88 240.527,-650.445 245.79,-641.25"/>
</g>
<!-- ATF4&#45;&gt;CYP11A1 -->
<g id="edge79" class="edge"><title>ATF4&#45;&gt;CYP11A1</title>
<path fill="none" stroke="#4d4dff" stroke-width="6.86486" d="M-844,541.98C-781.97,544.64 -680.16,549.01 -611.24,551.96"/>
<polygon fill="#4d4dff" stroke="#4d4dff" stroke-width="6.86486" points="-610.626,545.974 -600.89,552.4 -611.136,557.977 -610.626,545.974"/>
</g>
<!-- ZNF75A&#45;&gt;PTTG1 -->
<g id="edge80" class="edge"><title>ZNF75A&#45;&gt;PTTG1</title>
<path fill="none" stroke="#7171ff" stroke-width="3.78378" d="M466.25,567.8C404.73,563.5 318.27,557.44 256.84,553.14"/>
<polygon fill="#7171ff" stroke="#7171ff" stroke-width="3.78378" points="256.552,556.628 246.82,552.44 257.04,549.646 256.552,556.628"/>
</g>
<!-- MTF1&#45;&gt;FOS -->
<g id="edge81" class="edge"><title>MTF1&#45;&gt;FOS</title>
<path fill="none" stroke="#4949ff" stroke-width="7.18919" d="M490.9,-463.59C434.83,-475.36 343.42,-494.56 274.51,-509.03"/>
<polygon fill="#4949ff" stroke="#4949ff" stroke-width="7.18919" points="273.004,-502.918 264.51,-511.13 275.589,-515.231 273.004,-502.918"/>
</g>
<!-- ZNF322&#45;&gt;RGS2 -->
<g id="edge82" class="edge"><title>ZNF322&#45;&gt;RGS2</title>
<path fill="none" stroke="#4f4fff" stroke-width="6.7027" d="M502.24,336.45C488.98,327.78 475.2,316.56 465.87,303.18 301.54,67.638 430.31,-78.736 258.41,-308.81 252.42,-316.84 244.87,-324.14 236.87,-330.58"/>
<polygon fill="#4f4fff" stroke="#4f4fff" stroke-width="6.7027" points="233.168,-326.028 228.76,-336.75 240.27,-335.363 233.168,-326.028"/>
</g>
<!-- ZNF322&#45;&gt;PTTG1 -->
<g id="edge83" class="edge"><title>ZNF322&#45;&gt;PTTG1</title>
<path fill="none" stroke="#4343ff" stroke-width="7.67568" d="M502.85,377.69C437.64,412.25 306.2,481.91 233.33,520.53"/>
<polygon fill="#4343ff" stroke="#4343ff" stroke-width="7.67568" points="236.291,526.562 224.31,525.31 230.001,514.693 236.291,526.562"/>
</g>
<!-- GABPA&#45;&gt;PTTG1 -->
<g id="edge84" class="edge"><title>GABPA&#45;&gt;PTTG1</title>
<path fill="none" stroke="#ff7d7d" stroke-width="2.81081" d="M493.54,429.39C431.01,453.15 321.51,494.76 250.31,521.82"/>
<polygon fill="#ff7d7d" stroke="#ff7d7d" stroke-width="2.81081" points="251.551,525.092 240.96,525.37 249.066,518.548 251.551,525.092"/>
</g>
<!-- NFIB&#45;&gt;EGR1 -->
<g id="edge85" class="edge"><title>NFIB&#45;&gt;EGR1</title>
<path fill="none" stroke="#ff4343" stroke-width="7.67568" d="M506.49,69.2C491.97,60.197 476.17,48.008 465.87,33.124 307.4,-195.88 442.96,-345.02 267.41,-561.21 263.18,-566.43 258.25,-571.22 252.93,-575.59"/>
<polygon fill="#ff4343" stroke="#ff4343" stroke-width="7.67568" points="248.8,-570.293 244.9,-581.69 256.926,-580.989 248.8,-570.293"/>
</g>
<!-- NFIB&#45;&gt;JUN -->
<g id="edge86" class="edge"><title>NFIB&#45;&gt;JUN</title>
<path fill="none" stroke="#ff4343" stroke-width="7.67568" d="M505.61,69.288C491.11,60.367 475.56,48.218 465.87,33.124 277.21,-260.64 481.18,-450.13 268.91,-727.31 266.1,-730.99 262.93,-734.44 259.5,-737.67"/>
<polygon fill="#ff4343" stroke="#ff4343" stroke-width="7.67568" points="254.888,-732.777 251.65,-744.38 263.615,-742.988 254.888,-732.777"/>
</g>
<!-- NFIB&#45;&gt;NREP -->
<g id="edge87" class="edge"><title>NFIB&#45;&gt;NREP</title>
<path fill="none" stroke="#ff4a4a" stroke-width="7.02703" d="M509.62,106.36C496.82,115.48 482.94,127.4 473.65,141.16 314.77,376.23 411.68,506.28 248.91,738.69 241.33,749.51 231.26,759.56 221.23,768.14"/>
<polygon fill="#ff4a4a" stroke="#ff4a4a" stroke-width="7.02703" points="224.872,773.105 213.24,774.69 217.075,763.595 224.872,773.105"/>
</g>
<!-- ZNF770&#45;&gt;JUN -->
<g id="edge88" class="edge"><title>ZNF770&#45;&gt;JUN</title>
<path fill="none" stroke="#5555ff" stroke-width="6.21622" d="M-158.89,-476.35C-116.56,-526.56 -11.149,-646.53 94.514,-727.31 99.599,-731.2 105.02,-735 110.58,-738.64"/>
<polygon fill="#5555ff" stroke="#5555ff" stroke-width="6.21622" points="108.033,-743.466 119.39,-744.24 113.868,-734.285 108.033,-743.466"/>
</g>
<!-- ZNF770&#45;&gt;NFKBIZ -->
<g id="edge89" class="edge"><title>ZNF770&#45;&gt;NFKBIZ</title>
<path fill="none" stroke="#8080ff" stroke-width="2.48649" d="M-160.66,-429.24C-144.12,-406.27 -119.45,-370.01 -102.44,-336.06 20.465,-90.669 -49.898,21.057 111.01,243.39 118.05,253.1 127.2,262.03 136.57,269.76"/>
<polygon fill="#8080ff" stroke="#8080ff" stroke-width="2.48649" points="138.762,267.031 144.45,275.97 134.429,272.529 138.762,267.031"/>
</g>
<!-- ZNF770&#45;&gt;NT5E -->
<g id="edge90" class="edge"><title>ZNF770&#45;&gt;NT5E</title>
<path fill="none" stroke="#ff5f5f" stroke-width="5.24324" d="M-241.82,-465.62C-302.3,-477.72 -393.52,-495.96 -458.79,-509.02"/>
<polygon fill="#ff5f5f" stroke="#ff5f5f" stroke-width="5.24324" points="-459.719,-504.527 -468.63,-510.98 -457.926,-513.526 -459.719,-504.527"/>
</g>
<!-- ZNF219&#45;&gt;EGR1 -->
<g id="edge91" class="edge"><title>ZNF219&#45;&gt;EGR1</title>
<path fill="none" stroke="#ff6565" stroke-width="4.75676" d="M516.9,-862.08C470.29,-819.76 365.62,-727.4 268.91,-660.91 261.54,-655.84 253.61,-650.81 245.64,-646"/>
<polygon fill="#ff6565" stroke="#ff6565" stroke-width="4.75676" points="247.734,-642.403 237.01,-640.88 243.487,-649.562 247.734,-642.403"/>
</g>
<!-- ZNF430&#45;&gt;SLC27A2 -->
<g id="edge92" class="edge"><title>ZNF430&#45;&gt;SLC27A2</title>
<path fill="none" stroke="#ff5e5e" stroke-width="5.40541" d="M495.39,14.092C433.41,-11.318 323.01,-56.585 251.09,-86.072"/>
<polygon fill="#ff5e5e" stroke="#ff5e5e" stroke-width="5.40541" points="249.099,-81.7762 241.64,-89.945 252.687,-90.5291 249.099,-81.7762"/>
</g>
<!-- STAT4&#45;&gt;PTTG1 -->
<g id="edge93" class="edge"><title>STAT4&#45;&gt;PTTG1</title>
<path fill="none" stroke="#5c5cff" stroke-width="5.56757" d="M509.11,821.96C502.12,817.23 494.84,812.17 488.18,807.25 477.91,799.66 475.69,797.3 465.87,789.13 368.73,708.4 345.79,686.62 249.41,604.99 238.76,595.96 227.14,586.15 216.58,577.25"/>
<polygon fill="#5c5cff" stroke="#5c5cff" stroke-width="5.56757" points="213.249,580.813 208.75,570.64 219.534,573.368 213.249,580.813"/>
</g>
<!-- ZNF791&#45;&gt;CCND1 -->
<g id="edge94" class="edge"><title>ZNF791&#45;&gt;CCND1</title>
<path fill="none" stroke="#7171ff" stroke-width="3.78378" d="M474,508.93C412.23,499.66 321.09,485.99 257.04,476.38"/>
<polygon fill="#7171ff" stroke="#7171ff" stroke-width="3.78378" points="256.373,479.819 247,474.88 257.407,472.896 256.373,479.819"/>
</g>
<!-- ZNF548&#45;&gt;CCND1 -->
<g id="edge95" class="edge"><title>ZNF548&#45;&gt;CCND1</title>
<path fill="none" stroke="#ff7d7d" stroke-width="2.81081" d="M498.29,322.63C434.13,351.5 313.8,405.65 241.39,438.23"/>
<polygon fill="#ff7d7d" stroke="#ff7d7d" stroke-width="2.81081" points="242.496,441.57 231.94,442.48 239.625,435.186 242.496,441.57"/>
</g>
<!-- ZNF28&#45;&gt;ISYNA1 -->
<g id="edge96" class="edge"><title>ZNF28&#45;&gt;ISYNA1</title>
<path fill="none" stroke="#6868ff" stroke-width="4.59459" d="M503.53,877.61C438.8,844.6 307.44,777.61 234.14,740.22"/>
<polygon fill="#6868ff" stroke="#6868ff" stroke-width="4.59459" points="232.156,743.721 225.07,735.6 235.805,736.557 232.156,743.721"/>
</g>
<!-- JDP2&#45;&gt;JUN -->
<g id="edge97" class="edge"><title>JDP2&#45;&gt;JUN</title>
<path fill="none" stroke="#7777ff" stroke-width="3.2973" d="M509.55,-1081.3C501.44,-1076.1 492.83,-1070.4 485.06,-1064.9 474.53,-1057.3 472.06,-1055.2 462.34,-1046.7 373.09,-968.32 274.14,-870.42 220.86,-816.73"/>
<polygon fill="#7777ff" stroke="#7777ff" stroke-width="3.2973" points="223.177,-814.096 213.65,-809.46 218.207,-819.025 223.177,-814.096"/>
</g>
<!-- STAT1&#45;&gt;JUN -->
<g id="edge98" class="edge"><title>STAT1&#45;&gt;JUN</title>
<path fill="none" stroke="#4141ff" stroke-width="7.83784" d="M517.26,118.69C512.68,114.31 507.99,109.71 503.71,105.27 496.26,97.569 493.42,96.284 487.79,87.168 474.17,65.114 474.01,57.734 465.87,33.124 356.25,-298.34 481.18,-450.13 268.91,-727.31 266.1,-730.99 262.93,-734.44 259.5,-737.67"/>
<polygon fill="#4141ff" stroke="#4141ff" stroke-width="7.83784" points="254.795,-732.669 251.65,-744.38 263.708,-743.096 254.795,-732.669"/>
</g>
<!-- STAT1&#45;&gt;NREP -->
<g id="edge99" class="edge"><title>STAT1&#45;&gt;NREP</title>
<path fill="none" stroke="#5656ff" stroke-width="6.05405" d="M511.34,162.74C500.44,171.77 488.85,183.02 480.72,195.31 335.9,414.32 404.17,526.95 248.91,738.69 240.95,749.55 230.56,759.72 220.34,768.41"/>
<polygon fill="#5656ff" stroke="#5656ff" stroke-width="6.05405" points="223.693,772.511 212.6,774.75 216.979,764.315 223.693,772.511"/>
</g>
<!-- ZBTB14&#45;&gt;JUN -->
<g id="edge100" class="edge"><title>ZBTB14&#45;&gt;JUN</title>
<path fill="none" stroke="#4747ff" stroke-width="7.35135" d="M511.95,-1024.6C450.67,-978.63 309.78,-872.97 233.33,-815.63"/>
<polygon fill="#4747ff" stroke="#4747ff" stroke-width="7.35135" points="237.099,-810.416 225.24,-809.56 229.378,-820.707 237.099,-810.416"/>
</g>
<!-- ZNF17&#45;&gt;EGR1 -->
<g id="edge101" class="edge"><title>ZNF17&#45;&gt;EGR1</title>
<path fill="none" stroke="#5656ff" stroke-width="6.05405" d="M-160.82,108.84C-144.17,85.884 -119.2,49.305 -102.44,14.872 16.087,-228.62 -75.687,-351.8 96.014,-561.21 100.27,-566.41 105.22,-571.18 110.55,-575.54"/>
<polygon fill="#5656ff" stroke="#5656ff" stroke-width="6.05405" points="107.422,-579.816 118.59,-581.64 113.825,-571.376 107.422,-579.816"/>
</g>
<!-- ZNF17&#45;&gt;NREP -->
<g id="edge102" class="edge"><title>ZNF17&#45;&gt;NREP</title>
<path fill="none" stroke="#5c5cff" stroke-width="5.56757" d="M-163.89,155.92C-149.96,179.31 -128.52,216.13 -111.63,248.94 -1.8818,462.09 -30.08,547.44 114.51,738.69 122.64,749.43 133.08,759.57 143.29,768.26"/>
<polygon fill="#5c5cff" stroke="#5c5cff" stroke-width="5.56757" points="146.385,764.498 151.02,774.61 140.201,772.027 146.385,764.498"/>
</g>
<!-- ZNF17&#45;&gt;CYP11A1 -->
<g id="edge103" class="edge"><title>ZNF17&#45;&gt;CYP11A1</title>
<path fill="none" stroke="#ff5e5e" stroke-width="5.40541" d="M-194.82,155.66C-238.05,216.6 -359.44,383.1 -479.09,505.29 -487.44,513.82 -497.14,522.44 -506.24,530.05"/>
<polygon fill="#ff5e5e" stroke="#ff5e5e" stroke-width="5.40541" points="-503.301,533.756 -514.03,536.45 -509.306,526.447 -503.301,533.756"/>
</g>
<!-- ZNF787&#45;&gt;IGFBP3 -->
<g id="edge104" class="edge"><title>ZNF787&#45;&gt;IGFBP3</title>
<path fill="none" stroke="#ff6868" stroke-width="4.59459" d="M-824.13,-245.08C-762.52,-243.32 -675.24,-240.83 -613.37,-239.06"/>
<polygon fill="#ff6868" stroke="#ff6868" stroke-width="4.59459" points="-613.17,-243.076 -603.29,-238.77 -613.402,-235.039 -613.17,-243.076"/>
</g>
<!-- MZF1&#45;&gt;PLAC1 -->
<g id="edge105" class="edge"><title>MZF1&#45;&gt;PLAC1</title>
<path fill="none" stroke="#ff7c7c" stroke-width="2.97297" d="M-847.09,-607.15C-789.08,-618.75 -693.61,-637.85 -624.15,-651.74"/>
<polygon fill="#ff7c7c" stroke="#ff7c7c" stroke-width="2.97297" points="-624.592,-655.221 -614.1,-653.75 -623.219,-648.357 -624.592,-655.221"/>
</g>
<!-- ZNF483&#45;&gt;PAM -->
<g id="edge106" class="edge"><title>ZNF483&#45;&gt;PAM</title>
<path fill="none" stroke="#4d4dff" stroke-width="6.86486" d="M-210.55,-314.14C-276.31,-269.75 -425.69,-168.92 -497.82,-120.23"/>
<polygon fill="#4d4dff" stroke="#4d4dff" stroke-width="6.86486" points="-494.571,-115.176 -506.22,-114.56 -501.292,-125.133 -494.571,-115.176"/>
</g>
<!-- ZNF483&#45;&gt;RGS2 -->
<g id="edge107" class="edge"><title>ZNF483&#45;&gt;RGS2</title>
<path fill="none" stroke="#ff4949" stroke-width="7.18919" d="M-105.87,-341.35C-47.324,-345.74 35.201,-351.93 96.842,-356.55"/>
<polygon fill="#ff4949" stroke="#ff4949" stroke-width="7.18919" points="96.496,-362.832 106.94,-357.31 97.4404,-350.287 96.496,-362.832"/>
</g>
<!-- ELF5&#45;&gt;PTTG1 -->
<g id="edge108" class="edge"><title>ELF5&#45;&gt;PTTG1</title>
<path fill="none" stroke="#ff4d4d" stroke-width="6.86486" d="M520.77,982.64C516.86,978.27 512.86,973.69 509.22,969.29 502.79,961.53 501.52,959.32 495.57,951.2 384,798.89 377.29,743.88 249.41,604.99 240.46,595.26 229.88,585.62 219.78,577.11"/>
<polygon fill="#ff4d4d" stroke="#ff4d4d" stroke-width="6.86486" points="215.717,581.545 211.82,570.55 223.357,572.274 215.717,581.545"/>
</g>
<!-- ESRRA&#45;&gt;CYP11A1 -->
<g id="edge109" class="edge"><title>ESRRA&#45;&gt;CYP11A1</title>
<path fill="none" stroke="#4747ff" stroke-width="7.35135" d="M-835.99,614.63C-773.4,602.11 -676.99,582.83 -610.95,569.62"/>
<polygon fill="#4747ff" stroke="#4747ff" stroke-width="7.35135" points="-612.1,563.29 -601.03,567.63 -609.569,575.904 -612.1,563.29"/>
</g>
<!-- ZNF586 -->
<g id="node1" class="node"><title>ZNF586</title>
<ellipse fill="white" stroke="#008000" cx="541.71" cy="-668.91" rx="74.4932" ry="24.0833"/>
<text text-anchor="middle" x="541.71" y="-662.71" font-family="Helvetica,sans-Serif" font-weight="bold" font-size="24.00">ZNF586</text>
</g>
<!-- EGR1 -->
<g id="node2" class="node"><title>EGR1</title>
<path fill="#5555ff" stroke="black" d="M252.21,-640.81C252.21,-640.81 111.21,-640.81 111.21,-640.81 105.21,-640.81 99.21,-634.81 99.21,-628.81 99.21,-628.81 99.21,-593.81 99.21,-593.81 99.21,-587.81 105.21,-581.81 111.21,-581.81 111.21,-581.81 252.21,-581.81 252.21,-581.81 258.21,-581.81 264.21,-587.81 264.21,-593.81 264.21,-593.81 264.21,-628.81 264.21,-628.81 264.21,-634.81 258.21,-640.81 252.21,-640.81"/>
<text text-anchor="middle" x="181.71" y="-605.11" font-family="Helvetica,sans-Serif" font-weight="bold" font-size="24.00" fill="#00ff00">EGR1</text>
</g>
<!-- TIMP2 -->
<g id="node3" class="node"><title>TIMP2</title>
<path fill="#ff8f8f" stroke="black" d="M-487.79,-42.414C-487.79,-42.414 -588.79,-42.414 -588.79,-42.414 -594.79,-42.414 -600.79,-36.414 -600.79,-30.414 -600.79,-30.414 -600.79,-11.414 -600.79,-11.414 -600.79,-5.414 -594.79,0.586 -588.79,0.586 -588.79,0.586 -487.79,0.586 -487.79,0.586 -481.79,0.586 -475.79,-5.414 -475.79,-11.414 -475.79,-11.414 -475.79,-30.414 -475.79,-30.414 -475.79,-36.414 -481.79,-42.414 -487.79,-42.414"/>
<text text-anchor="middle" x="-538.29" y="-14.714" font-family="Helvetica,sans-Serif" font-weight="bold" font-size="24.00" fill="white">TIMP2</text>
</g>
<!-- CTCF -->
<g id="node4" class="node"><title>CTCF</title>
<ellipse fill="white" stroke="#008000" cx="541.71" cy="-506.91" rx="58.8803" ry="24.0833"/>
<text text-anchor="middle" x="541.71" y="-500.71" font-family="Helvetica,sans-Serif" font-weight="bold" font-size="24.00">CTCF</text>
</g>
<!-- JUN -->
<g id="node5" class="node"><title>JUN</title>
<path fill="#4040ff" stroke="#008000" d="M259.71,-809.41C259.71,-809.41 103.71,-809.41 103.71,-809.41 97.71,-809.41 91.71,-803.41 91.71,-797.41 91.71,-797.41 91.71,-756.41 91.71,-756.41 91.71,-750.41 97.71,-744.41 103.71,-744.41 103.71,-744.41 259.71,-744.41 259.71,-744.41 265.71,-744.41 271.71,-750.41 271.71,-756.41 271.71,-756.41 271.71,-797.41 271.71,-797.41 271.71,-803.41 265.71,-809.41 259.71,-809.41"/>
<text text-anchor="middle" x="181.71" y="-770.71" font-family="Helvetica,sans-Serif" font-weight="bold" font-size="24.00" fill="#00ff00">JUN</text>
</g>
<!-- TCL1B -->
<g id="node6" class="node"><title>TCL1B</title>
<path fill="#ff7070" stroke="black" d="M243.21,-305.61C243.21,-305.61 120.21,-305.61 120.21,-305.61 114.21,-305.61 108.21,-299.61 108.21,-293.61 108.21,-293.61 108.21,-266.61 108.21,-266.61 108.21,-260.61 114.21,-254.61 120.21,-254.61 120.21,-254.61 243.21,-254.61 243.21,-254.61 249.21,-254.61 255.21,-260.61 255.21,-266.61 255.21,-266.61 255.21,-293.61 255.21,-293.61 255.21,-299.61 249.21,-305.61 243.21,-305.61"/>
<text text-anchor="middle" x="181.71" y="-273.91" font-family="Helvetica,sans-Serif" font-weight="bold" font-size="24.00" fill="white">TCL1B</text>
</g>
<!-- FOSB -->
<g id="node7" class="node"><title>FOSB</title>
<path fill="#5050ff" stroke="black" d="M253.71,-724.11C253.71,-724.11 109.71,-724.11 109.71,-724.11 103.71,-724.11 97.71,-718.11 97.71,-712.11 97.71,-712.11 97.71,-676.11 97.71,-676.11 97.71,-670.11 103.71,-664.11 109.71,-664.11 109.71,-664.11 253.71,-664.11 253.71,-664.11 259.71,-664.11 265.71,-670.11 265.71,-676.11 265.71,-676.11 265.71,-712.11 265.71,-712.11 265.71,-718.11 259.71,-724.11 253.71,-724.11"/>
<text text-anchor="middle" x="181.71" y="-687.91" font-family="Helvetica,sans-Serif" font-weight="bold" font-size="24.00" fill="#00ff00">FOSB</text>
</g>
<!-- ZNF682 -->
<g id="node8" class="node"><title>ZNF682</title>
<ellipse fill="#bfbfff" stroke="#008000" cx="-178.29" cy="15.086" rx="74.4932" ry="24.0833"/>
<text text-anchor="middle" x="-178.29" y="21.286" font-family="Helvetica,sans-Serif" font-weight="bold" font-size="24.00">ZNF682</text>
</g>
<!-- CSF1R -->
<g id="node9" class="node"><title>CSF1R</title>
<path fill="#ff7474" stroke="black" d="M241.71,-222.31C241.71,-222.31 121.71,-222.31 121.71,-222.31 115.71,-222.31 109.71,-216.31 109.71,-210.31 109.71,-210.31 109.71,-184.31 109.71,-184.31 109.71,-178.31 115.71,-172.31 121.71,-172.31 121.71,-172.31 241.71,-172.31 241.71,-172.31 247.71,-172.31 253.71,-178.31 253.71,-184.31 253.71,-184.31 253.71,-210.31 253.71,-210.31 253.71,-216.31 247.71,-222.31 241.71,-222.31"/>
<text text-anchor="middle" x="181.71" y="-191.11" font-family="Helvetica,sans-Serif" font-weight="bold" font-size="24.00" fill="white">CSF1R</text>
</g>
<!-- SLC22A11 -->
<g id="node10" class="node"><title>SLC22A11</title>
<path fill="#a6a6ff" stroke="black" d="M-481.79,680.59C-481.79,680.59 -594.79,680.59 -594.79,680.59 -600.79,680.59 -606.79,686.59 -606.79,692.59 -606.79,692.59 -606.79,705.59 -606.79,705.59 -606.79,711.59 -600.79,717.59 -594.79,717.59 -594.79,717.59 -481.79,717.59 -481.79,717.59 -475.79,717.59 -469.79,711.59 -469.79,705.59 -469.79,705.59 -469.79,692.59 -469.79,692.59 -469.79,686.59 -475.79,680.59 -481.79,680.59"/>
<text text-anchor="middle" x="-538.29" y="705.29" font-family="Helvetica,sans-Serif" font-weight="bold" font-size="24.00" fill="white">SLC22A11</text>
</g>
<!-- ZNF260 -->
<g id="node11" class="node"><title>ZNF260</title>
<ellipse fill="white" stroke="#008000" cx="-898.29" cy="-72.343" rx="74.4932" ry="24.0833"/>
<text text-anchor="middle" x="-898.29" y="-66.143" font-family="Helvetica,sans-Serif" font-weight="bold" font-size="24.00">ZNF260</text>
</g>
<!-- PHGDH -->
<g id="node12" class="node"><title>PHGDH</title>
<path fill="#ff9d9d" stroke="black" d="M-492.29,175.59C-492.29,175.59 -584.29,175.59 -584.29,175.59 -590.29,175.59 -596.29,181.59 -596.29,187.59 -596.29,187.59 -596.29,202.59 -596.29,202.59 -596.29,208.59 -590.29,214.59 -584.29,214.59 -584.29,214.59 -492.29,214.59 -492.29,214.59 -486.29,214.59 -480.29,208.59 -480.29,202.59 -480.29,202.59 -480.29,187.59 -480.29,187.59 -480.29,181.59 -486.29,175.59 -492.29,175.59"/>
<text text-anchor="middle" x="-538.29" y="201.29" font-family="Helvetica,sans-Serif" font-weight="bold" font-size="24.00" fill="white">PHGDH</text>
</g>
<!-- PLAC1 -->
<g id="node13" class="node"><title>PLAC1</title>
<path fill="#ff6a6a" stroke="black" d="M-474.79,-695.41C-474.79,-695.41 -601.79,-695.41 -601.79,-695.41 -607.79,-695.41 -613.79,-689.41 -613.79,-683.41 -613.79,-683.41 -613.79,-654.41 -613.79,-654.41 -613.79,-648.41 -607.79,-642.41 -601.79,-642.41 -601.79,-642.41 -474.79,-642.41 -474.79,-642.41 -468.79,-642.41 -462.79,-648.41 -462.79,-654.41 -462.79,-654.41 -462.79,-683.41 -462.79,-683.41 -462.79,-689.41 -468.79,-695.41 -474.79,-695.41"/>
<text text-anchor="middle" x="-538.29" y="-662.71" font-family="Helvetica,sans-Serif" font-weight="bold" font-size="24.00" fill="white">PLAC1</text>
</g>
<!-- PAM -->
<g id="node14" class="node"><title>PAM</title>
<path fill="#ff8e8e" stroke="black" d="M-487.29,-114.414C-487.29,-114.414 -589.29,-114.414 -589.29,-114.414 -595.29,-114.414 -601.29,-108.414 -601.29,-102.414 -601.29,-102.414 -601.29,-83.414 -601.29,-83.414 -601.29,-77.414 -595.29,-71.414 -589.29,-71.414 -589.29,-71.414 -487.29,-71.414 -487.29,-71.414 -481.29,-71.414 -475.29,-77.414 -475.29,-83.414 -475.29,-83.414 -475.29,-102.414 -475.29,-102.414 -475.29,-108.414 -481.29,-114.414 -487.29,-114.414"/>
<text text-anchor="middle" x="-538.29" y="-86.714" font-family="Helvetica,sans-Serif" font-weight="bold" font-size="24.00" fill="white">PAM</text>
</g>
<!-- ZNF627 -->
<g id="node15" class="node"><title>ZNF627</title>
<ellipse fill="white" stroke="#008000" cx="541.71" cy="-290.91" rx="74.4932" ry="24.0833"/>
<text text-anchor="middle" x="541.71" y="-284.71" font-family="Helvetica,sans-Serif" font-weight="bold" font-size="24.00">ZNF627</text>
</g>
<!-- RGS2 -->
<g id="node16" class="node"><title>RGS2</title>
<path fill="#6d6dff" stroke="black" d="M244.21,-388.91C244.21,-388.91 119.21,-388.91 119.21,-388.91 113.21,-388.91 107.21,-382.91 107.21,-376.91 107.21,-376.91 107.21,-348.91 107.21,-348.91 107.21,-342.91 113.21,-336.91 119.21,-336.91 119.21,-336.91 244.21,-336.91 244.21,-336.91 250.21,-336.91 256.21,-342.91 256.21,-348.91 256.21,-348.91 256.21,-376.91 256.21,-376.91 256.21,-382.91 250.21,-388.91 244.21,-388.91"/>
<text text-anchor="middle" x="181.71" y="-356.71" font-family="Helvetica,sans-Serif" font-weight="bold" font-size="24.00" fill="white">RGS2</text>
</g>
<!-- ZNF350 -->
<g id="node17" class="node"><title>ZNF350</title>
<ellipse fill="white" stroke="#008000" cx="541.71" cy="-236.91" rx="74.4932" ry="24.0833"/>
<text text-anchor="middle" x="541.71" y="-230.71" font-family="Helvetica,sans-Serif" font-weight="bold" font-size="24.00">ZNF350</text>
</g>
<!-- ASNS -->
<g id="node18" class="node"><title>ASNS</title>
<path fill="#ff7d7d" stroke="black" d="M238.21,-55.714C238.21,-55.714 125.21,-55.714 125.21,-55.714 119.21,-55.714 113.21,-49.714 113.21,-43.714 113.21,-43.714 113.21,-19.714 113.21,-19.714 113.21,-13.714 119.21,-7.714 125.21,-7.714 125.21,-7.714 238.21,-7.714 238.21,-7.714 244.21,-7.714 250.21,-13.714 250.21,-19.714 250.21,-19.714 250.21,-43.714 250.21,-43.714 250.21,-49.714 244.21,-55.714 238.21,-55.714"/>
<text text-anchor="middle" x="181.71" y="-25.514" font-family="Helvetica,sans-Serif" font-weight="bold" font-size="24.00" fill="white">ASNS</text>
</g>
<!-- TAGLN -->
<g id="node19" class="node"><title>TAGLN</title>
<path fill="#ff6a6a" stroke="black" d="M244.71,-472.21C244.71,-472.21 118.71,-472.21 118.71,-472.21 112.71,-472.21 106.71,-466.21 106.71,-460.21 106.71,-460.21 106.71,-431.21 106.71,-431.21 106.71,-425.21 112.71,-419.21 118.71,-419.21 118.71,-419.21 244.71,-419.21 244.71,-419.21 250.71,-419.21 256.71,-425.21 256.71,-431.21 256.71,-431.21 256.71,-460.21 256.71,-460.21 256.71,-466.21 250.71,-472.21 244.71,-472.21"/>
<text text-anchor="middle" x="181.71" y="-439.51" font-family="Helvetica,sans-Serif" font-weight="bold" font-size="24.00" fill="white">TAGLN</text>
</g>
<!-- PAPPA -->
<g id="node20" class="node"><title>PAPPA</title>
<path fill="#ff8686" stroke="black" d="M-484.29,-403.41C-484.29,-403.41 -592.29,-403.41 -592.29,-403.41 -598.29,-403.41 -604.29,-397.41 -604.29,-391.41 -604.29,-391.41 -604.29,-370.41 -604.29,-370.41 -604.29,-364.41 -598.29,-358.41 -592.29,-358.41 -592.29,-358.41 -484.29,-358.41 -484.29,-358.41 -478.29,-358.41 -472.29,-364.41 -472.29,-370.41 -472.29,-370.41 -472.29,-391.41 -472.29,-391.41 -472.29,-397.41 -478.29,-403.41 -484.29,-403.41"/>
<text text-anchor="middle" x="-538.29" y="-374.71" font-family="Helvetica,sans-Serif" font-weight="bold" font-size="24.00" fill="white">PAPPA</text>
</g>
<!-- ZNF419 -->
<g id="node21" class="node"><title>ZNF419</title>
<ellipse fill="white" stroke="#008000" cx="541.71" cy="789.09" rx="74.4932" ry="24.0833"/>
<text text-anchor="middle" x="541.71" y="795.29" font-family="Helvetica,sans-Serif" font-weight="bold" font-size="24.00">ZNF419</text>
</g>
<!-- PTTG1 -->
<g id="node22" class="node"><title>PTTG1</title>
<path fill="#8888ff" stroke="black" d="M234.71,525.39C234.71,525.39 128.71,525.39 128.71,525.39 122.71,525.39 116.71,531.39 116.71,537.39 116.71,537.39 116.71,558.39 116.71,558.39 116.71,564.39 122.71,570.39 128.71,570.39 128.71,570.39 234.71,570.39 234.71,570.39 240.71,570.39 246.71,564.39 246.71,558.39 246.71,558.39 246.71,537.39 246.71,537.39 246.71,531.39 240.71,525.39 234.71,525.39"/>
<text text-anchor="middle" x="181.71" y="554.09" font-family="Helvetica,sans-Serif" font-weight="bold" font-size="24.00" fill="#00ff00">PTTG1</text>
</g>
<!-- NUPR1 -->
<g id="node23" class="node"><title>NUPR1</title>
<path fill="#ff8383" stroke="black" d="M236.21,359.29C236.21,359.29 127.21,359.29 127.21,359.29 121.21,359.29 115.21,365.29 115.21,371.29 115.21,371.29 115.21,393.29 115.21,393.29 115.21,399.29 121.21,405.29 127.21,405.29 127.21,405.29 236.21,405.29 236.21,405.29 242.21,405.29 248.21,399.29 248.21,393.29 248.21,393.29 248.21,371.29 248.21,371.29 248.21,365.29 242.21,359.29 236.21,359.29"/>
<text text-anchor="middle" x="181.71" y="388.49" font-family="Helvetica,sans-Serif" font-weight="bold" font-size="24.00" fill="#00ff00">NUPR1</text>
</g>
<!-- ZBTB4 -->
<g id="node24" class="node"><title>ZBTB4</title>
<ellipse fill="white" stroke="#008000" cx="541.71" cy="-344.91" rx="68" ry="24.0833"/>
<text text-anchor="middle" x="541.71" y="-338.71" font-family="Helvetica,sans-Serif" font-weight="bold" font-size="24.00">ZBTB4</text>
</g>
<!-- ZNF331 -->
<g id="node25" class="node"><title>ZNF331</title>
<ellipse fill="white" stroke="#008000" cx="-898.29" cy="102.51" rx="74.4932" ry="24.0833"/>
<text text-anchor="middle" x="-898.29" y="108.71" font-family="Helvetica,sans-Serif" font-weight="bold" font-size="24.00">ZNF331</text>
</g>
<!-- ITGA5 -->
<g id="node26" class="node"><title>ITGA5</title>
<path fill="#ffa0a0" stroke="black" d="M-493.29,392.09C-493.29,392.09 -583.29,392.09 -583.29,392.09 -589.29,392.09 -595.29,398.09 -595.29,404.09 -595.29,404.09 -595.29,418.09 -595.29,418.09 -595.29,424.09 -589.29,430.09 -583.29,430.09 -583.29,430.09 -493.29,430.09 -493.29,430.09 -487.29,430.09 -481.29,424.09 -481.29,418.09 -481.29,418.09 -481.29,404.09 -481.29,404.09 -481.29,398.09 -487.29,392.09 -493.29,392.09"/>
<text text-anchor="middle" x="-538.29" y="417.29" font-family="Helvetica,sans-Serif" font-weight="bold" font-size="24.00" fill="white">ITGA5</text>
</g>
<!-- ESAM -->
<g id="node27" class="node"><title>ESAM</title>
<path fill="#ffa3a3" stroke="black" d="M-494.29,464.09C-494.29,464.09 -582.29,464.09 -582.29,464.09 -588.29,464.09 -594.29,470.09 -594.29,476.09 -594.29,476.09 -594.29,490.09 -594.29,490.09 -594.29,496.09 -588.29,502.09 -582.29,502.09 -582.29,502.09 -494.29,502.09 -494.29,502.09 -488.29,502.09 -482.29,496.09 -482.29,490.09 -482.29,490.09 -482.29,476.09 -482.29,476.09 -482.29,470.09 -488.29,464.09 -494.29,464.09"/>
<text text-anchor="middle" x="-538.29" y="489.29" font-family="Helvetica,sans-Serif" font-weight="bold" font-size="24.00" fill="white">ESAM</text>
</g>
<!-- COLEC12 -->
<g id="node28" class="node"><title>COLEC12</title>
<path fill="#8989ff" stroke="black" d="M-485.29,-186.91C-485.29,-186.91 -591.29,-186.91 -591.29,-186.91 -597.29,-186.91 -603.29,-180.91 -603.29,-174.91 -603.29,-174.91 -603.29,-154.91 -603.29,-154.91 -603.29,-148.91 -597.29,-142.91 -591.29,-142.91 -591.29,-142.91 -485.29,-142.91 -485.29,-142.91 -479.29,-142.91 -473.29,-148.91 -473.29,-154.91 -473.29,-154.91 -473.29,-174.91 -473.29,-174.91 -473.29,-180.91 -479.29,-186.91 -485.29,-186.91"/>
<text text-anchor="middle" x="-538.29" y="-158.71" font-family="Helvetica,sans-Serif" font-weight="bold" font-size="24.00" fill="white">COLEC12</text>
</g>
<!-- CRH -->
<g id="node29" class="node"><title>CRH</title>
<path fill="#ff6e6e" stroke="black" d="M-476.29,-622.91C-476.29,-622.91 -600.29,-622.91 -600.29,-622.91 -606.29,-622.91 -612.29,-616.91 -612.29,-610.91 -612.29,-610.91 -612.29,-582.91 -612.29,-582.91 -612.29,-576.91 -606.29,-570.91 -600.29,-570.91 -600.29,-570.91 -476.29,-570.91 -476.29,-570.91 -470.29,-570.91 -464.29,-576.91 -464.29,-582.91 -464.29,-582.91 -464.29,-610.91 -464.29,-610.91 -464.29,-616.91 -470.29,-622.91 -476.29,-622.91"/>
<text text-anchor="middle" x="-538.29" y="-590.71" font-family="Helvetica,sans-Serif" font-weight="bold" font-size="24.00" fill="white">CRH</text>
</g>
<!-- SERPINF1 -->
<g id="node30" class="node"><title>SERPINF1</title>
<path fill="#9d9dff" stroke="black" d="M-481.79,319.59C-481.79,319.59 -594.79,319.59 -594.79,319.59 -600.79,319.59 -606.79,325.59 -606.79,331.59 -606.79,331.59 -606.79,346.59 -606.79,346.59 -606.79,352.59 -600.79,358.59 -594.79,358.59 -594.79,358.59 -481.79,358.59 -481.79,358.59 -475.79,358.59 -469.79,352.59 -469.79,346.59 -469.79,346.59 -469.79,331.59 -469.79,331.59 -469.79,325.59 -475.79,319.59 -481.79,319.59"/>
<text text-anchor="middle" x="-538.29" y="345.29" font-family="Helvetica,sans-Serif" font-weight="bold" font-size="24.00" fill="white">SERPINF1</text>
</g>
<!-- MYC -->
<g id="node31" class="node"><title>MYC</title>
<ellipse fill="#b3b3ff" stroke="#008000" cx="541.71" cy="681.09" rx="50.41" ry="24.0833"/>
<text text-anchor="middle" x="541.71" y="687.29" font-family="Helvetica,sans-Serif" font-weight="bold" font-size="24.00">MYC</text>
</g>
<!-- CCND1 -->
<g id="node32" class="node"><title>CCND1</title>
<path fill="#8888ff" stroke="black" d="M234.71,442.59C234.71,442.59 128.71,442.59 128.71,442.59 122.71,442.59 116.71,448.59 116.71,454.59 116.71,454.59 116.71,475.59 116.71,475.59 116.71,481.59 122.71,487.59 128.71,487.59 128.71,487.59 234.71,487.59 234.71,487.59 240.71,487.59 246.71,481.59 246.71,475.59 246.71,475.59 246.71,454.59 246.71,454.59 246.71,448.59 240.71,442.59 234.71,442.59"/>
<text text-anchor="middle" x="181.71" y="471.29" font-family="Helvetica,sans-Serif" font-weight="bold" font-size="24.00" fill="#00ff00">CCND1</text>
</g>
<!-- ZNF329 -->
<g id="node33" class="node"><title>ZNF329</title>
<ellipse fill="white" stroke="#008000" cx="541.71" cy="-74.914" rx="74.4932" ry="24.0833"/>
<text text-anchor="middle" x="541.71" y="-68.714" font-family="Helvetica,sans-Serif" font-weight="bold" font-size="24.00">ZNF329</text>
</g>
<!-- FOS -->
<g id="node34" class="node"><title>FOS</title>
<path fill="#5656ff" stroke="black" d="M252.21,-558.01C252.21,-558.01 111.21,-558.01 111.21,-558.01 105.21,-558.01 99.21,-552.01 99.21,-546.01 99.21,-546.01 99.21,-511.01 99.21,-511.01 99.21,-505.01 105.21,-499.01 111.21,-499.01 111.21,-499.01 252.21,-499.01 252.21,-499.01 258.21,-499.01 264.21,-505.01 264.21,-511.01 264.21,-511.01 264.21,-546.01 264.21,-546.01 264.21,-552.01 258.21,-558.01 252.21,-558.01"/>
<text text-anchor="middle" x="181.71" y="-522.31" font-family="Helvetica,sans-Serif" font-weight="bold" font-size="24.00" fill="#00ff00">FOS</text>
</g>
<!-- ERVFRD&#45;1 -->
<g id="node35" class="node"><title>ERVFRD&#45;1</title>
<path fill="#8080ff" stroke="black" d="M239.71,110.39C239.71,110.39 123.71,110.39 123.71,110.39 117.71,110.39 111.71,116.39 111.71,122.39 111.71,122.39 111.71,145.39 111.71,145.39 111.71,151.39 117.71,157.39 123.71,157.39 123.71,157.39 239.71,157.39 239.71,157.39 245.71,157.39 251.71,151.39 251.71,145.39 251.71,145.39 251.71,122.39 251.71,122.39 251.71,116.39 245.71,110.39 239.71,110.39"/>
<text text-anchor="middle" x="181.71" y="140.09" font-family="Helvetica,sans-Serif" font-weight="bold" font-size="24.00" fill="white">ERVFRD&#45;1</text>
</g>
<!-- ZNF444 -->
<g id="node36" class="node"><title>ZNF444</title>
<ellipse fill="white" stroke="#008000" cx="541.71" cy="-776.91" rx="74.4932" ry="24.0833"/>
<text text-anchor="middle" x="541.71" y="-770.71" font-family="Helvetica,sans-Serif" font-weight="bold" font-size="24.00">ZNF444</text>
</g>
<!-- IGFBP3 -->
<g id="node37" class="node"><title>IGFBP3</title>
<path fill="#ff8888" stroke="black" d="M-485.29,-259.41C-485.29,-259.41 -591.29,-259.41 -591.29,-259.41 -597.29,-259.41 -603.29,-253.41 -603.29,-247.41 -603.29,-247.41 -603.29,-226.41 -603.29,-226.41 -603.29,-220.41 -597.29,-214.41 -591.29,-214.41 -591.29,-214.41 -485.29,-214.41 -485.29,-214.41 -479.29,-214.41 -473.29,-220.41 -473.29,-226.41 -473.29,-226.41 -473.29,-247.41 -473.29,-247.41 -473.29,-253.41 -479.29,-259.41 -485.29,-259.41"/>
<text text-anchor="middle" x="-538.29" y="-230.71" font-family="Helvetica,sans-Serif" font-weight="bold" font-size="24.00" fill="white">IGFBP3</text>
</g>
<!-- ZNF320 -->
<g id="node38" class="node"><title>ZNF320</title>
<ellipse fill="white" stroke="#008000" cx="541.71" cy="465.09" rx="74.4932" ry="24.0833"/>
<text text-anchor="middle" x="541.71" y="471.29" font-family="Helvetica,sans-Serif" font-weight="bold" font-size="24.00">ZNF320</text>
</g>
<!-- ZNF223 -->
<g id="node39" class="node"><title>ZNF223</title>
<ellipse fill="white" stroke="#008000" cx="541.71" cy="-20.914" rx="74.4932" ry="24.0833"/>
<text text-anchor="middle" x="541.71" y="-14.714" font-family="Helvetica,sans-Serif" font-weight="bold" font-size="24.00">ZNF223</text>
</g>
<!-- NFKBIZ -->
<g id="node40" class="node"><title>NFKBIZ</title>
<path fill="#8282ff" stroke="black" d="M236.71,275.99C236.71,275.99 126.71,275.99 126.71,275.99 120.71,275.99 114.71,281.99 114.71,287.99 114.71,287.99 114.71,310.99 114.71,310.99 114.71,316.99 120.71,322.99 126.71,322.99 126.71,322.99 236.71,322.99 236.71,322.99 242.71,322.99 248.71,316.99 248.71,310.99 248.71,310.99 248.71,287.99 248.71,287.99 248.71,281.99 242.71,275.99 236.71,275.99"/>
<text text-anchor="middle" x="181.71" y="305.69" font-family="Helvetica,sans-Serif" font-weight="bold" font-size="24.00" fill="#00ff00">NFKBIZ</text>
</g>
<!-- ZNF626 -->
<g id="node41" class="node"><title>ZNF626</title>
<ellipse fill="white" stroke="#008000" cx="541.71" cy="627.09" rx="74.4932" ry="24.0833"/>
<text text-anchor="middle" x="541.71" y="633.29" font-family="Helvetica,sans-Serif" font-weight="bold" font-size="24.00">ZNF626</text>
</g>
<!-- HOPX -->
<g id="node42" class="node"><title>HOPX</title>
<path fill="#ff8989" stroke="black" d="M234.21,608.19C234.21,608.19 129.21,608.19 129.21,608.19 123.21,608.19 117.21,614.19 117.21,620.19 117.21,620.19 117.21,641.19 117.21,641.19 117.21,647.19 123.21,653.19 129.21,653.19 129.21,653.19 234.21,653.19 234.21,653.19 240.21,653.19 246.21,647.19 246.21,641.19 246.21,641.19 246.21,620.19 246.21,620.19 246.21,614.19 240.21,608.19 234.21,608.19"/>
<text text-anchor="middle" x="181.71" y="636.89" font-family="Helvetica,sans-Serif" font-weight="bold" font-size="24.00" fill="#00ff00">HOPX</text>
</g>
<!-- ZNF529 -->
<g id="node43" class="node"><title>ZNF529</title>
<ellipse fill="white" stroke="#008000" cx="-178.29" cy="-218.91" rx="74.4932" ry="24.0833"/>
<text text-anchor="middle" x="-178.29" y="-212.71" font-family="Helvetica,sans-Serif" font-weight="bold" font-size="24.00">ZNF529</text>
</g>
<!-- CD24 -->
<g id="node44" class="node"><title>CD24</title>
<path fill="#a6a6ff" stroke="black" d="M-495.29,608.59C-495.29,608.59 -581.29,608.59 -581.29,608.59 -587.29,608.59 -593.29,614.59 -593.29,620.59 -593.29,620.59 -593.29,633.59 -593.29,633.59 -593.29,639.59 -587.29,645.59 -581.29,645.59 -581.29,645.59 -495.29,645.59 -495.29,645.59 -489.29,645.59 -483.29,639.59 -483.29,633.59 -483.29,633.59 -483.29,620.59 -483.29,620.59 -483.29,614.59 -489.29,608.59 -495.29,608.59"/>
<text text-anchor="middle" x="-538.29" y="633.29" font-family="Helvetica,sans-Serif" font-weight="bold" font-size="24.00" fill="white">CD24</text>
</g>
<!-- PNP -->
<g id="node45" class="node"><title>PNP</title>
<path fill="#7d7dff" stroke="black" d="M238.21,27.086C238.21,27.086 125.21,27.086 125.21,27.086 119.21,27.086 113.21,33.086 113.21,39.086 113.21,39.086 113.21,63.086 113.21,63.086 113.21,69.086 119.21,75.086 125.21,75.086 125.21,75.086 238.21,75.086 238.21,75.086 244.21,75.086 250.21,69.086 250.21,63.086 250.21,63.086 250.21,39.086 250.21,39.086 250.21,33.086 244.21,27.086 238.21,27.086"/>
<text text-anchor="middle" x="181.71" y="57.286" font-family="Helvetica,sans-Serif" font-weight="bold" font-size="24.00" fill="white">PNP</text>
</g>
<!-- DENND2A -->
<g id="node46" class="node"><title>DENND2A</title>
<path fill="#ff8585" stroke="black" d="M-482.29,-475.91C-482.29,-475.91 -594.29,-475.91 -594.29,-475.91 -600.29,-475.91 -606.29,-469.91 -606.29,-463.91 -606.29,-463.91 -606.29,-441.91 -606.29,-441.91 -606.29,-435.91 -600.29,-429.91 -594.29,-429.91 -594.29,-429.91 -482.29,-429.91 -482.29,-429.91 -476.29,-429.91 -470.29,-435.91 -470.29,-441.91 -470.29,-441.91 -470.29,-463.91 -470.29,-463.91 -470.29,-469.91 -476.29,-475.91 -482.29,-475.91"/>
<text text-anchor="middle" x="-538.29" y="-446.71" font-family="Helvetica,sans-Serif" font-weight="bold" font-size="24.00" fill="white">DENND2A</text>
</g>
<!-- KLF10 -->
<g id="node47" class="node"><title>KLF10</title>
<ellipse fill="#bebeff" stroke="#008000" cx="-178.29" cy="249.09" rx="65.1077" ry="24.0833"/>
<text text-anchor="middle" x="-178.29" y="255.29" font-family="Helvetica,sans-Serif" font-weight="bold" font-size="24.00">KLF10</text>
</g>
<!-- ISYNA1 -->
<g id="node48" class="node"><title>ISYNA1</title>
<path fill="#8b8bff" stroke="black" d="M233.71,691.49C233.71,691.49 129.71,691.49 129.71,691.49 123.71,691.49 117.71,697.49 117.71,703.49 117.71,703.49 117.71,723.49 117.71,723.49 117.71,729.49 123.71,735.49 129.71,735.49 129.71,735.49 233.71,735.49 233.71,735.49 239.71,735.49 245.71,729.49 245.71,723.49 245.71,723.49 245.71,703.49 245.71,703.49 245.71,697.49 239.71,691.49 233.71,691.49"/>
<text text-anchor="middle" x="181.71" y="719.69" font-family="Helvetica,sans-Serif" font-weight="bold" font-size="24.00" fill="white">ISYNA1</text>
</g>
<!-- TFCP2 -->
<g id="node49" class="node"><title>TFCP2</title>
<ellipse fill="white" stroke="#008000" cx="-898.29" cy="-159.77" rx="67.3507" ry="24.0833"/>
<text text-anchor="middle" x="-898.29" y="-153.57" font-family="Helvetica,sans-Serif" font-weight="bold" font-size="24.00">TFCP2</text>
</g>
<!-- CTGF -->
<g id="node50" class="node"><title>CTGF</title>
<path fill="#9292ff" stroke="black" d="M-489.29,30.086C-489.29,30.086 -587.29,30.086 -587.29,30.086 -593.29,30.086 -599.29,36.086 -599.29,42.086 -599.29,42.086 -599.29,60.086 -599.29,60.086 -599.29,66.086 -593.29,72.086 -587.29,72.086 -587.29,72.086 -489.29,72.086 -489.29,72.086 -483.29,72.086 -477.29,66.086 -477.29,60.086 -477.29,60.086 -477.29,42.086 -477.29,42.086 -477.29,36.086 -483.29,30.086 -489.29,30.086"/>
<text text-anchor="middle" x="-538.29" y="57.286" font-family="Helvetica,sans-Serif" font-weight="bold" font-size="24.00" fill="white">CTGF</text>
</g>
<!-- ZBTB34 -->
<g id="node51" class="node"><title>ZBTB34</title>
<ellipse fill="white" stroke="#008000" cx="541.71" cy="1059.1" rx="78" ry="24.0833"/>
<text text-anchor="middle" x="541.71" y="1065.3" font-family="Helvetica,sans-Serif" font-weight="bold" font-size="24.00">ZBTB34</text>
</g>
<!-- ZNF33B -->
<g id="node52" class="node"><title>ZNF33B</title>
<ellipse fill="white" stroke="#008000" cx="-898.29" cy="189.94" rx="78" ry="24.0833"/>
<text text-anchor="middle" x="-898.29" y="196.14" font-family="Helvetica,sans-Serif" font-weight="bold" font-size="24.00">ZNF33B</text>
</g>
<!-- NFKB1 -->
<g id="node53" class="node"><title>NFKB1</title>
<ellipse fill="white" stroke="#008000" cx="541.71" cy="-128.91" rx="70.0071" ry="24.0833"/>
<text text-anchor="middle" x="541.71" y="-122.71" font-family="Helvetica,sans-Serif" font-weight="bold" font-size="24.00">NFKB1</text>
</g>
<!-- ZNF34 -->
<g id="node54" class="node"><title>ZNF34</title>
<ellipse fill="white" stroke="#008000" cx="541.71" cy="-938.91" rx="65.1077" ry="24.0833"/>
<text text-anchor="middle" x="541.71" y="-932.71" font-family="Helvetica,sans-Serif" font-weight="bold" font-size="24.00">ZNF34</text>
</g>
<!-- ZNF69 -->
<g id="node55" class="node"><title>ZNF69</title>
<ellipse fill="white" stroke="#008000" cx="-178.29" cy="-101.91" rx="65.1077" ry="24.0833"/>
<text text-anchor="middle" x="-178.29" y="-95.71" font-family="Helvetica,sans-Serif" font-weight="bold" font-size="24.00">ZNF69</text>
</g>
<!-- E2F3 -->
<g id="node56" class="node"><title>E2F3</title>
<ellipse fill="#ceceff" stroke="#008000" cx="541.71" cy="-560.91" rx="53.066" ry="24.0833"/>
<text text-anchor="middle" x="541.71" y="-554.71" font-family="Helvetica,sans-Serif" font-weight="bold" font-size="24.00">E2F3</text>
</g>
<!-- ZNF621 -->
<g id="node57" class="node"><title>ZNF621</title>
<ellipse fill="white" stroke="#008000" cx="-898.29" cy="15.086" rx="74.4932" ry="24.0833"/>
<text text-anchor="middle" x="-898.29" y="21.286" font-family="Helvetica,sans-Serif" font-weight="bold" font-size="24.00">ZNF621</text>
</g>
<!-- MT1E -->
<g id="node58" class="node"><title>MT1E</title>
<path fill="#ff9797" stroke="black" d="M-490.79,102.59C-490.79,102.59 -585.79,102.59 -585.79,102.59 -591.79,102.59 -597.79,108.59 -597.79,114.59 -597.79,114.59 -597.79,131.59 -597.79,131.59 -597.79,137.59 -591.79,143.59 -585.79,143.59 -585.79,143.59 -490.79,143.59 -490.79,143.59 -484.79,143.59 -478.79,137.59 -478.79,131.59 -478.79,131.59 -478.79,114.59 -478.79,114.59 -478.79,108.59 -484.79,102.59 -490.79,102.59"/>
<text text-anchor="middle" x="-538.29" y="129.29" font-family="Helvetica,sans-Serif" font-weight="bold" font-size="24.00" fill="white">MT1E</text>
</g>
<!-- ZNF274 -->
<g id="node59" class="node"><title>ZNF274</title>
<ellipse fill="#ffd9d9" stroke="#008000" cx="-898.29" cy="-509.49" rx="74.4932" ry="24.0833"/>
<text text-anchor="middle" x="-898.29" y="-503.29" font-family="Helvetica,sans-Serif" font-weight="bold" font-size="24.00">ZNF274</text>
</g>
<!-- NT5E -->
<g id="node60" class="node"><title>NT5E</title>
<path fill="#ff7a7a" stroke="black" d="M-480.79,-548.91C-480.79,-548.91 -595.79,-548.91 -595.79,-548.91 -601.79,-548.91 -607.79,-542.91 -607.79,-536.91 -607.79,-536.91 -607.79,-512.91 -607.79,-512.91 -607.79,-506.91 -601.79,-500.91 -595.79,-500.91 -595.79,-500.91 -480.79,-500.91 -480.79,-500.91 -474.79,-500.91 -468.79,-506.91 -468.79,-512.91 -468.79,-512.91 -468.79,-536.91 -468.79,-536.91 -468.79,-542.91 -474.79,-548.91 -480.79,-548.91"/>
<text text-anchor="middle" x="-538.29" y="-518.71" font-family="Helvetica,sans-Serif" font-weight="bold" font-size="24.00" fill="white">NT5E</text>
</g>
<!-- NFYC -->
<g id="node61" class="node"><title>NFYC</title>
<ellipse fill="white" stroke="#008000" cx="541.71" cy="195.09" rx="59.5" ry="24.0833"/>
<text text-anchor="middle" x="541.71" y="201.29" font-family="Helvetica,sans-Serif" font-weight="bold" font-size="24.00">NFYC</text>
</g>
<!-- RELA -->
<g id="node62" class="node"><title>RELA</title>
<ellipse fill="white" stroke="#008000" cx="541.71" cy="-992.91" rx="58.8803" ry="24.0833"/>
<text text-anchor="middle" x="541.71" y="-986.71" font-family="Helvetica,sans-Serif" font-weight="bold" font-size="24.00">RELA</text>
</g>
<!-- PRDM4 -->
<g id="node63" class="node"><title>PRDM4</title>
<ellipse fill="white" stroke="#008000" cx="-898.29" cy="364.8" rx="73" ry="24.0833"/>
<text text-anchor="middle" x="-898.29" y="371" font-family="Helvetica,sans-Serif" font-weight="bold" font-size="24.00">PRDM4</text>
</g>
<!-- HTRA4 -->
<g id="node64" class="node"><title>HTRA4</title>
<path fill="#ff9d9d" stroke="black" d="M-492.29,247.59C-492.29,247.59 -584.29,247.59 -584.29,247.59 -590.29,247.59 -596.29,253.59 -596.29,259.59 -596.29,259.59 -596.29,274.59 -596.29,274.59 -596.29,280.59 -590.29,286.59 -584.29,286.59 -584.29,286.59 -492.29,286.59 -492.29,286.59 -486.29,286.59 -480.29,280.59 -480.29,274.59 -480.29,274.59 -480.29,259.59 -480.29,259.59 -480.29,253.59 -486.29,247.59 -492.29,247.59"/>
<text text-anchor="middle" x="-538.29" y="273.29" font-family="Helvetica,sans-Serif" font-weight="bold" font-size="24.00" fill="white">HTRA4</text>
</g>
<!-- ZNF212 -->
<g id="node65" class="node"><title>ZNF212</title>
<ellipse fill="white" stroke="#008000" cx="541.71" cy="-182.91" rx="74.4932" ry="24.0833"/>
<text text-anchor="middle" x="541.71" y="-176.71" font-family="Helvetica,sans-Serif" font-weight="bold" font-size="24.00">ZNF212</text>
</g>
<!-- NREP -->
<g id="node66" class="node"><title>NREP</title>
<path fill="#8c8cff" stroke="black" d="M233.21,774.79C233.21,774.79 130.21,774.79 130.21,774.79 124.21,774.79 118.21,780.79 118.21,786.79 118.21,786.79 118.21,805.79 118.21,805.79 118.21,811.79 124.21,817.79 130.21,817.79 130.21,817.79 233.21,817.79 233.21,817.79 239.21,817.79 245.21,811.79 245.21,805.79 245.21,805.79 245.21,786.79 245.21,786.79 245.21,780.79 239.21,774.79 233.21,774.79"/>
<text text-anchor="middle" x="181.71" y="802.49" font-family="Helvetica,sans-Serif" font-weight="bold" font-size="24.00" fill="white">NREP</text>
</g>
<!-- ZNF549 -->
<g id="node67" class="node"><title>ZNF549</title>
<ellipse fill="#dcdcff" stroke="#008000" cx="-898.29" cy="277.37" rx="74.4932" ry="24.0833"/>
<text text-anchor="middle" x="-898.29" y="283.57" font-family="Helvetica,sans-Serif" font-weight="bold" font-size="24.00">ZNF549</text>
</g>
<!-- GRHL2 -->
<g id="node68" class="node"><title>GRHL2</title>
<ellipse fill="#ffdada" stroke="#008000" cx="541.71" cy="249.09" rx="70.0071" ry="24.0833"/>
<text text-anchor="middle" x="541.71" y="255.29" font-family="Helvetica,sans-Serif" font-weight="bold" font-size="24.00">GRHL2</text>
</g>
<!-- ZNF266 -->
<g id="node69" class="node"><title>ZNF266</title>
<ellipse fill="white" stroke="#008000" cx="541.71" cy="-398.91" rx="74.4932" ry="24.0833"/>
<text text-anchor="middle" x="541.71" y="-392.71" font-family="Helvetica,sans-Serif" font-weight="bold" font-size="24.00">ZNF266</text>
</g>
<!-- RFX5 -->
<g id="node70" class="node"><title>RFX5</title>
<ellipse fill="#cdcdff" stroke="#008000" cx="-898.29" cy="452.23" rx="56.6372" ry="24.0833"/>
<text text-anchor="middle" x="-898.29" y="458.43" font-family="Helvetica,sans-Serif" font-weight="bold" font-size="24.00">RFX5</text>
</g>
<!-- CYP11A1 -->
<g id="node71" class="node"><title>CYP11A1</title>
<path fill="#ffa3a3" stroke="black" d="M-487.79,536.59C-487.79,536.59 -588.79,536.59 -588.79,536.59 -594.79,536.59 -600.79,542.59 -600.79,548.59 -600.79,548.59 -600.79,561.59 -600.79,561.59 -600.79,567.59 -594.79,573.59 -588.79,573.59 -588.79,573.59 -487.79,573.59 -487.79,573.59 -481.79,573.59 -475.79,567.59 -475.79,561.59 -475.79,561.59 -475.79,548.59 -475.79,548.59 -475.79,542.59 -481.79,536.59 -487.79,536.59"/>
<text text-anchor="middle" x="-538.29" y="561.29" font-family="Helvetica,sans-Serif" font-weight="bold" font-size="24.00" fill="white">CYP11A1</text>
</g>
<!-- HES1 -->
<g id="node72" class="node"><title>HES1</title>
<ellipse fill="#8f8fff" stroke="#008000" cx="541.71" cy="-614.91" rx="56.6372" ry="24.0833"/>
<text text-anchor="middle" x="541.71" y="-608.71" font-family="Helvetica,sans-Serif" font-weight="bold" font-size="24.00">HES1</text>
</g>
<!-- ZNF394 -->
<g id="node73" class="node"><title>ZNF394</title>
<ellipse fill="#dadaff" stroke="#008000" cx="-178.29" cy="483.09" rx="74.4932" ry="24.0833"/>
<text text-anchor="middle" x="-178.29" y="489.29" font-family="Helvetica,sans-Serif" font-weight="bold" font-size="24.00">ZNF394</text>
</g>
<!-- IRF9 -->
<g id="node74" class="node"><title>IRF9</title>
<ellipse fill="#ffb2b2" stroke="#008000" cx="541.71" cy="735.09" rx="49.5" ry="24.0833"/>
<text text-anchor="middle" x="541.71" y="741.29" font-family="Helvetica,sans-Serif" font-weight="bold" font-size="24.00">IRF9</text>
</g>
<!-- ZFX -->
<g id="node75" class="node"><title>ZFX</title>
<ellipse fill="white" stroke="#008000" cx="-178.29" cy="366.09" rx="44.5955" ry="24.0833"/>
<text text-anchor="middle" x="-178.29" y="372.29" font-family="Helvetica,sans-Serif" font-weight="bold" font-size="24.00">ZFX</text>
</g>
<!-- MPP1 -->
<g id="node76" class="node"><title>MPP1</title>
<path fill="#8282ff" stroke="black" d="M237.21,193.19C237.21,193.19 126.21,193.19 126.21,193.19 120.21,193.19 114.21,199.19 114.21,205.19 114.21,205.19 114.21,228.19 114.21,228.19 114.21,234.19 120.21,240.19 126.21,240.19 126.21,240.19 237.21,240.19 237.21,240.19 243.21,240.19 249.21,234.19 249.21,228.19 249.21,228.19 249.21,205.19 249.21,205.19 249.21,199.19 243.21,193.19 237.21,193.19"/>
<text text-anchor="middle" x="181.71" y="222.89" font-family="Helvetica,sans-Serif" font-weight="bold" font-size="24.00" fill="white">MPP1</text>
</g>
<!-- ZNF823 -->
<g id="node77" class="node"><title>ZNF823</title>
<ellipse fill="white" stroke="#008000" cx="-898.29" cy="-422.06" rx="74.4932" ry="24.0833"/>
<text text-anchor="middle" x="-898.29" y="-415.86" font-family="Helvetica,sans-Serif" font-weight="bold" font-size="24.00">ZNF823</text>
</g>
<!-- SRF -->
<g id="node78" class="node"><title>SRF</title>
<ellipse fill="#d6d6ff" stroke="#008000" cx="541.71" cy="-722.91" rx="46.8387" ry="24.0833"/>
<text text-anchor="middle" x="541.71" y="-716.71" font-family="Helvetica,sans-Serif" font-weight="bold" font-size="24.00">SRF</text>
</g>
<!-- SP2 -->
<g id="node79" class="node"><title>SP2</title>
<ellipse fill="white" stroke="#008000" cx="541.71" cy="951.09" rx="44.5955" ry="24.0833"/>
<text text-anchor="middle" x="541.71" y="957.29" font-family="Helvetica,sans-Serif" font-weight="bold" font-size="24.00">SP2</text>
</g>
<!-- SLC27A2 -->
<g id="node80" class="node"><title>SLC27A2</title>
<path fill="#7777ff" stroke="black" d="M240.21,-139.01C240.21,-139.01 123.21,-139.01 123.21,-139.01 117.21,-139.01 111.21,-133.01 111.21,-127.01 111.21,-127.01 111.21,-102.01 111.21,-102.01 111.21,-96.01 117.21,-90.01 123.21,-90.01 123.21,-90.01 240.21,-90.01 240.21,-90.01 246.21,-90.01 252.21,-96.01 252.21,-102.01 252.21,-102.01 252.21,-127.01 252.21,-127.01 252.21,-133.01 246.21,-139.01 240.21,-139.01"/>
<text text-anchor="middle" x="181.71" y="-108.31" font-family="Helvetica,sans-Serif" font-weight="bold" font-size="24.00" fill="white">SLC27A2</text>
</g>
<!-- EGR2 -->
<g id="node81" class="node"><title>EGR2</title>
<ellipse fill="#d1d1ff" stroke="#008000" cx="-898.29" cy="-334.63" rx="58.8803" ry="24.0833"/>
<text text-anchor="middle" x="-898.29" y="-328.43" font-family="Helvetica,sans-Serif" font-weight="bold" font-size="24.00">EGR2</text>
</g>
<!-- SLC7A1 -->
<g id="node82" class="node"><title>SLC7A1</title>
<path fill="#ff8888" stroke="black" d="M-485.29,-331.41C-485.29,-331.41 -591.29,-331.41 -591.29,-331.41 -597.29,-331.41 -603.29,-325.41 -603.29,-319.41 -603.29,-319.41 -603.29,-298.41 -603.29,-298.41 -603.29,-292.41 -597.29,-286.41 -591.29,-286.41 -591.29,-286.41 -485.29,-286.41 -485.29,-286.41 -479.29,-286.41 -473.29,-292.41 -473.29,-298.41 -473.29,-298.41 -473.29,-319.41 -473.29,-319.41 -473.29,-325.41 -479.29,-331.41 -485.29,-331.41"/>
<text text-anchor="middle" x="-538.29" y="-302.71" font-family="Helvetica,sans-Serif" font-weight="bold" font-size="24.00" fill="white">SLC7A1</text>
</g>
<!-- SP1 -->
<g id="node83" class="node"><title>SP1</title>
<ellipse fill="white" stroke="#008000" cx="541.71" cy="-830.91" rx="44.5955" ry="24.0833"/>
<text text-anchor="middle" x="541.71" y="-824.71" font-family="Helvetica,sans-Serif" font-weight="bold" font-size="24.00">SP1</text>
</g>
<!-- ATF4 -->
<g id="node84" class="node"><title>ATF4</title>
<ellipse fill="#bfbfff" stroke="#008000" cx="-898.29" cy="539.66" rx="54.5" ry="24.0833"/>
<text text-anchor="middle" x="-898.29" y="545.86" font-family="Helvetica,sans-Serif" font-weight="bold" font-size="24.00">ATF4</text>
</g>
<!-- ZNF75A -->
<g id="node85" class="node"><title>ZNF75A</title>
<ellipse fill="white" stroke="#008000" cx="541.71" cy="573.09" rx="77.1494" ry="24.0833"/>
<text text-anchor="middle" x="541.71" y="579.29" font-family="Helvetica,sans-Serif" font-weight="bold" font-size="24.00">ZNF75A</text>
</g>
<!-- MTF1 -->
<g id="node86" class="node"><title>MTF1</title>
<ellipse fill="white" stroke="#008000" cx="541.71" cy="-452.91" rx="56.6372" ry="24.0833"/>
<text text-anchor="middle" x="541.71" y="-446.71" font-family="Helvetica,sans-Serif" font-weight="bold" font-size="24.00">MTF1</text>
</g>
<!-- ZNF322 -->
<g id="node87" class="node"><title>ZNF322</title>
<ellipse fill="white" stroke="#008000" cx="541.71" cy="357.09" rx="74.4932" ry="24.0833"/>
<text text-anchor="middle" x="541.71" y="363.29" font-family="Helvetica,sans-Serif" font-weight="bold" font-size="24.00">ZNF322</text>
</g>
<!-- GABPA -->
<g id="node88" class="node"><title>GABPA</title>
<ellipse fill="white" stroke="#008000" cx="541.71" cy="411.09" rx="73.5782" ry="24.0833"/>
<text text-anchor="middle" x="541.71" y="417.29" font-family="Helvetica,sans-Serif" font-weight="bold" font-size="24.00">GABPA</text>
</g>
<!-- NFIB -->
<g id="node89" class="node"><title>NFIB</title>
<ellipse fill="#cbcbff" stroke="#008000" cx="541.71" cy="87.086" rx="52.5" ry="24.0833"/>
<text text-anchor="middle" x="541.71" y="93.286" font-family="Helvetica,sans-Serif" font-weight="bold" font-size="24.00">NFIB</text>
</g>
<!-- ZNF770 -->
<g id="node90" class="node"><title>ZNF770</title>
<ellipse fill="white" stroke="#008000" cx="-178.29" cy="-452.91" rx="74.4932" ry="24.0833"/>
<text text-anchor="middle" x="-178.29" y="-446.71" font-family="Helvetica,sans-Serif" font-weight="bold" font-size="24.00">ZNF770</text>
</g>
<!-- ZNF219 -->
<g id="node91" class="node"><title>ZNF219</title>
<ellipse fill="white" stroke="#008000" cx="541.71" cy="-884.91" rx="74.4932" ry="24.0833"/>
<text text-anchor="middle" x="541.71" y="-878.71" font-family="Helvetica,sans-Serif" font-weight="bold" font-size="24.00">ZNF219</text>
</g>
<!-- ZNF430 -->
<g id="node92" class="node"><title>ZNF430</title>
<ellipse fill="white" stroke="#008000" cx="541.71" cy="33.086" rx="74.4932" ry="24.0833"/>
<text text-anchor="middle" x="541.71" y="39.286" font-family="Helvetica,sans-Serif" font-weight="bold" font-size="24.00">ZNF430</text>
</g>
<!-- STAT4 -->
<g id="node93" class="node"><title>STAT4</title>
<ellipse fill="#ffacac" stroke="#008000" cx="541.71" cy="843.09" rx="66.5" ry="24.0833"/>
<text text-anchor="middle" x="541.71" y="849.29" font-family="Helvetica,sans-Serif" font-weight="bold" font-size="24.00">STAT4</text>
</g>
<!-- ZNF791 -->
<g id="node94" class="node"><title>ZNF791</title>
<ellipse fill="white" stroke="#008000" cx="541.71" cy="519.09" rx="74.4932" ry="24.0833"/>
<text text-anchor="middle" x="541.71" y="525.29" font-family="Helvetica,sans-Serif" font-weight="bold" font-size="24.00">ZNF791</text>
</g>
<!-- ZNF548 -->
<g id="node95" class="node"><title>ZNF548</title>
<ellipse fill="white" stroke="#008000" cx="541.71" cy="303.09" rx="74.4932" ry="24.0833"/>
<text text-anchor="middle" x="541.71" y="309.29" font-family="Helvetica,sans-Serif" font-weight="bold" font-size="24.00">ZNF548</text>
</g>
<!-- ZNF28 -->
<g id="node96" class="node"><title>ZNF28</title>
<ellipse fill="white" stroke="#008000" cx="541.71" cy="897.09" rx="65.1077" ry="24.0833"/>
<text text-anchor="middle" x="541.71" y="903.29" font-family="Helvetica,sans-Serif" font-weight="bold" font-size="24.00">ZNF28</text>
</g>
<!-- JDP2 -->
<g id="node97" class="node"><title>JDP2</title>
<ellipse fill="white" stroke="#008000" cx="541.71" cy="-1100.9" rx="55.3091" ry="24.0833"/>
<text text-anchor="middle" x="541.71" y="-1094.7" font-family="Helvetica,sans-Serif" font-weight="bold" font-size="24.00">JDP2</text>
</g>
<!-- STAT1 -->
<g id="node98" class="node"><title>STAT1</title>
<ellipse fill="#ff9e9e" stroke="#008000" cx="541.71" cy="141.09" rx="66.5" ry="24.0833"/>
<text text-anchor="middle" x="541.71" y="147.29" font-family="Helvetica,sans-Serif" font-weight="bold" font-size="24.00">STAT1</text>
</g>
<!-- ZBTB14 -->
<g id="node99" class="node"><title>ZBTB14</title>
<ellipse fill="white" stroke="#008000" cx="541.71" cy="-1046.9" rx="78" ry="24.0833"/>
<text text-anchor="middle" x="541.71" y="-1040.7" font-family="Helvetica,sans-Serif" font-weight="bold" font-size="24.00">ZBTB14</text>
</g>
<!-- ZNF17 -->
<g id="node100" class="node"><title>ZNF17</title>
<ellipse fill="white" stroke="#008000" cx="-178.29" cy="132.09" rx="65.1077" ry="24.0833"/>
<text text-anchor="middle" x="-178.29" y="138.29" font-family="Helvetica,sans-Serif" font-weight="bold" font-size="24.00">ZNF17</text>
</g>
<!-- ZNF787 -->
<g id="node101" class="node"><title>ZNF787</title>
<ellipse fill="white" stroke="#008000" cx="-898.29" cy="-247.2" rx="74.4932" ry="24.0833"/>
<text text-anchor="middle" x="-898.29" y="-241" font-family="Helvetica,sans-Serif" font-weight="bold" font-size="24.00">ZNF787</text>
</g>
<!-- MZF1 -->
<g id="node102" class="node"><title>MZF1</title>
<ellipse fill="white" stroke="#008000" cx="-898.29" cy="-596.91" rx="56.6372" ry="24.0833"/>
<text text-anchor="middle" x="-898.29" y="-590.71" font-family="Helvetica,sans-Serif" font-weight="bold" font-size="24.00">MZF1</text>
</g>
<!-- ZNF483 -->
<g id="node103" class="node"><title>ZNF483</title>
<ellipse fill="white" stroke="#008000" cx="-178.29" cy="-335.91" rx="74.4932" ry="24.0833"/>
<text text-anchor="middle" x="-178.29" y="-329.71" font-family="Helvetica,sans-Serif" font-weight="bold" font-size="24.00">ZNF483</text>
</g>
<!-- ELF5 -->
<g id="node104" class="node"><title>ELF5</title>
<ellipse fill="#acacff" stroke="#008000" cx="541.71" cy="1005.1" rx="54.5" ry="24.0833"/>
<text text-anchor="middle" x="541.71" y="1011.3" font-family="Helvetica,sans-Serif" font-weight="bold" font-size="24.00">ELF5</text>
</g>
<!-- ESRRA -->
<g id="node105" class="node"><title>ESRRA</title>
<ellipse fill="white" stroke="#008000" cx="-898.29" cy="627.09" rx="73" ry="24.0833"/>
<text text-anchor="middle" x="-898.29" y="633.29" font-family="Helvetica,sans-Serif" font-weight="bold" font-size="24.00">ESRRA</text>
</g>
</g>
</svg>
